{
	"asset":{
		"generator":"Khronos glTF Blender I/O v4.5.48",
		"version":"2.0"
	},
	"scene":0,
	"scenes":[
		{
			"name":"Scene",
			"nodes":[
				0,
				1,
				2
			]
		}
	],
	"nodes":[
		{
			"mesh":0,
			"name":"Pc"
		},
		{
			"mesh":1,
			"name":"Teclado",
			"rotation":[
				0,
				1,
				0,
				0
			],
			"scale":[
				-1.7929574251174927,
				-0.12039852142333984,
				-0.6154263615608215
			],
			"translation":[
				0,
				-1.7879048585891724,
				2.468660831451416
			]
		},
		{
			"mesh":2,
			"name":"Raton",
			"scale":[
				0.17809206247329712,
				0.11256909370422363,
				0.11256909370422363
			],
			"translation":[
				2.201422691345215,
				-1.9168130159378052,
				2.3905701637268066
			]
		}
	],
	"materials":[
		{
			"doubleSided":true,
			"emissiveFactor":[
				1,
				1,
				1
			],
			"emissiveTexture":{
				"index":0
			},
			"name":"Material.001",
			"pbrMetallicRoughness":{
				"baseColorFactor":[
					0,
					0,
					0,
					1
				]
			}
		},
		{
			"doubleSided":true,
			"emissiveFactor":[
				1,
				1,
				1
			],
			"emissiveTexture":{
				"index":1
			},
			"name":"Material",
			"pbrMetallicRoughness":{
				"baseColorFactor":[
					0,
					0,
					0,
					1
				]
			}
		},
		{
			"doubleSided":true,
			"emissiveFactor":[
				1,
				1,
				1
			],
			"emissiveTexture":{
				"index":2
			},
			"name":"Material.002",
			"pbrMetallicRoughness":{
				"baseColorFactor":[
					0,
					0,
					0,
					1
				]
			}
		}
	],
	"meshes":[
		{
			"name":"Cube.001",
			"primitives":[
				{
					"attributes":{
						"POSITION":0,
						"NORMAL":1,
						"TEXCOORD_0":2
					},
					"indices":3,
					"material":0
				}
			]
		},
		{
			"name":"Cube",
			"primitives":[
				{
					"attributes":{
						"POSITION":4,
						"NORMAL":5,
						"TEXCOORD_0":6
					},
					"indices":7,
					"material":1
				}
			]
		},
		{
			"name":"Cube.002",
			"primitives":[
				{
					"attributes":{
						"POSITION":8,
						"NORMAL":9,
						"TEXCOORD_0":10
					},
					"indices":11,
					"material":2
				}
			]
		}
	],
	"textures":[
		{
			"sampler":0,
			"source":0
		},
		{
			"sampler":0,
			"source":0
		},
		{
			"sampler":0,
			"source":0
		}
	],
	"images":[
		{
			"mimeType":"image/png",
			"name":"Textura pc.png",
			"uri":"../Textures/Textura%20pc.png"
		}
	],
	"accessors":[
		{
			"bufferView":0,
			"componentType":5126,
			"count":221,
			"max":[
				1.2358691692352295,
				1.1794250011444092,
				1.2208070755004883
			],
			"min":[
				-1.2358691692352295,
				-1.8011889457702637,
				-1.2208070755004883
			],
			"type":"VEC3"
		},
		{
			"bufferView":1,
			"componentType":5126,
			"count":221,
			"type":"VEC3"
		},
		{
			"bufferView":2,
			"componentType":5126,
			"count":221,
			"type":"VEC2"
		},
		{
			"bufferView":3,
			"componentType":5123,
			"count":432,
			"type":"SCALAR"
		},
		{
			"bufferView":4,
			"componentType":5126,
			"count":24,
			"max":[
				1,
				1,
				1
			],
			"min":[
				-1,
				-1,
				-1
			],
			"type":"VEC3"
		},
		{
			"bufferView":5,
			"componentType":5126,
			"count":24,
			"type":"VEC3"
		},
		{
			"bufferView":6,
			"componentType":5126,
			"count":24,
			"type":"VEC2"
		},
		{
			"bufferView":7,
			"componentType":5123,
			"count":36,
			"type":"SCALAR"
		},
		{
			"bufferView":8,
			"componentType":5126,
			"count":38,
			"max":[
				1.1515315771102905,
				1,
				1
			],
			"min":[
				-1.1515320539474487,
				-1,
				-4.5270891189575195
			],
			"type":"VEC3"
		},
		{
			"bufferView":9,
			"componentType":5126,
			"count":38,
			"type":"VEC3"
		},
		{
			"bufferView":10,
			"componentType":5126,
			"count":38,
			"type":"VEC2"
		},
		{
			"bufferView":11,
			"componentType":5123,
			"count":60,
			"type":"SCALAR"
		}
	],
	"bufferViews":[
		{
			"buffer":0,
			"byteLength":2652,
			"byteOffset":0,
			"target":34962
		},
		{
			"buffer":0,
			"byteLength":2652,
			"byteOffset":2652,
			"target":34962
		},
		{
			"buffer":0,
			"byteLength":1768,
			"byteOffset":5304,
			"target":34962
		},
		{
			"buffer":0,
			"byteLength":864,
			"byteOffset":7072,
			"target":34963
		},
		{
			"buffer":0,
			"byteLength":288,
			"byteOffset":7936,
			"target":34962
		},
		{
			"buffer":0,
			"byteLength":288,
			"byteOffset":8224,
			"target":34962
		},
		{
			"buffer":0,
			"byteLength":192,
			"byteOffset":8512,
			"target":34962
		},
		{
			"buffer":0,
			"byteLength":72,
			"byteOffset":8704,
			"target":34963
		},
		{
			"buffer":0,
			"byteLength":456,
			"byteOffset":8776,
			"target":34962
		},
		{
			"buffer":0,
			"byteLength":456,
			"byteOffset":9232,
			"target":34962
		},
		{
			"buffer":0,
			"byteLength":304,
			"byteOffset":9688,
			"target":34962
		},
		{
			"buffer":0,
			"byteLength":120,
			"byteOffset":9992,
			"target":34963
		}
	],
	"samplers":[
		{
			"magFilter":9728,
			"minFilter":9984
		}
	],
	"buffers":[
		{
			"byteLength":10112,
			"uri":"pc.bin"
		}
	]
}
