<?xml version="1.0" encoding="UTF-8" standalone="no"?>
<!DOCTYPE svg PUBLIC "-//W3C//DTD SVG 1.1//EN" "http://www.w3.org/Graphics/SVG/1.1/DTD/svg11.dtd">
<svg width="100%" height="100%" viewBox="0 0 106 124" version="1.1" xmlns="http://www.w3.org/2000/svg" xmlns:xlink="http://www.w3.org/1999/xlink" xml:space="preserve" xmlns:serif="http://www.serif.com/" style="fill-rule:evenodd;clip-rule:evenodd;stroke-linecap:round;stroke-linejoin:round;stroke-miterlimit:1.5;">
    <g transform="matrix(1,0,0,1,-1003.528126,-232.628227)">
        <path d="M1013.48,272.2L1018.792,289.992L1004.072,284.552C1004.072,284.552 1003.912,280.904 1004.2,279.432C1004.459,278.11 1005.032,276.819 1005.8,275.72C1006.568,274.621 1007.859,273.437 1008.808,272.84C1009.592,272.347 1010.718,272.243 1011.496,272.136C1012.152,272.046 1013.48,272.2 1013.48,272.2Z" style="fill:rgb(255,191,64);stroke:rgb(255,191,64);stroke-width:1px;"/>
        <path d="M1019.688,273.8L1025.576,292.616L1019.304,289.992L1014.568,272.108L1019.688,273.8Z" style="stroke:black;stroke-width:1px;"/>
        <path d="M1032.488,277.192L1038.952,279.432L1045.288,297.224L1038.376,295.304L1032.488,277.192Z" style="stroke:black;stroke-width:1px;"/>
        <path d="M1040.424,264.456C1040.008,261.779 1033.502,256.435 1032.104,254.152C1031.514,253.188 1031.538,251.773 1032.04,250.76C1032.723,249.384 1035.112,246.92 1036.2,245.896C1036.854,245.281 1037.843,244.637 1038.568,244.616C1039.294,244.595 1040.121,245.137 1040.552,245.768C1041.96,247.827 1045.523,254.952 1047.016,256.968C1047.543,257.678 1048.734,257.715 1049.512,257.864C1050.225,258.001 1050.977,258.007 1051.688,257.864C1052.697,257.661 1054.917,257.587 1055.562,256.648C1056.208,255.709 1056.026,253.629 1055.562,252.232C1054.511,249.064 1050.35,240.605 1049.256,237.64C1048.886,236.636 1048.755,235.176 1049,234.44C1049.223,233.772 1050.037,233.361 1050.728,233.224C1051.592,233.053 1053.379,233.107 1054.184,233.416C1054.857,233.674 1055.26,234.426 1055.562,235.08C1057.483,239.229 1064.057,253.939 1065.704,258.312C1066.059,259.254 1065.758,260.616 1065.448,261.32C1065.179,261.933 1064.42,262.187 1063.848,262.536C1062.782,263.187 1060.04,264.584 1059.048,265.224C1058.592,265.518 1057.917,265.833 1057.896,266.376C1057.875,266.941 1058.551,267.883 1058.92,268.616C1060.595,271.944 1067.998,282.867 1067.944,286.344C1067.894,289.629 1061.8,290.227 1058.6,289.48C1055.358,288.723 1051.266,284.091 1048.488,281.8C1046.192,279.906 1043.222,277.005 1041.933,275.737C1041.291,275.106 1041.638,274.694 1040.943,274.333C1039.857,273.77 1036.671,276.364 1034.728,277.128C1032.952,277.827 1030.888,279.325 1029.288,278.92C1027.688,278.515 1026.418,276.194 1025.128,274.696C1023.614,272.936 1021.118,270.067 1020.2,268.36C1019.578,267.201 1019.603,265.32 1019.624,264.456C1019.636,263.969 1019.917,263.437 1020.328,263.176C1020.766,262.899 1021.672,262.728 1022.248,262.792C1022.817,262.855 1023.331,263.21 1023.784,263.56C1025.512,264.893 1030.814,269.683 1032.616,270.792C1033.203,271.153 1034.066,270.65 1034.6,270.216C1035.902,269.16 1040.84,267.133 1040.424,264.456Z" style="fill:rgb(200,88,61);stroke:black;stroke-width:1px;"/>
        <path d="M1076.712,304.648C1078.22,306.292 1078.38,308.785 1079.208,310.856C1080.04,312.936 1080.923,315.018 1081.704,317.128C1082.526,319.347 1083.368,321.896 1084.136,324.168C1084.877,326.36 1085.694,328.829 1086.312,330.76C1086.844,332.418 1087.374,334.077 1087.848,335.752C1088.467,337.939 1089.523,341.693 1090.024,343.88C1090.401,345.524 1090.594,347.206 1090.856,348.872C1091.166,350.835 1093.142,357.563 1091.88,355.656C1090.483,353.544 1084.958,341.203 1082.472,336.2C1080.706,332.645 1078.611,328.84 1076.968,325.64C1075.496,322.771 1073.928,319.485 1072.616,317C1071.497,314.88 1070.11,312.563 1069.096,310.728C1068.229,309.157 1067.379,307.368 1066.536,305.992C1065.785,304.765 1064.83,303.155 1064.04,302.472C1063.457,301.968 1062.472,301.864 1061.8,301.896C1061.151,301.927 1060.437,302.176 1060.008,302.664C1059.39,303.368 1058.664,305.149 1058.088,306.12C1057.608,306.929 1056.973,307.88 1056.552,308.488C1056.245,308.932 1055.867,309.323 1055.562,309.768C1055.146,310.376 1054.382,311.389 1054.056,312.136C1053.769,312.796 1053.753,313.543 1053.608,314.248C1053.427,315.133 1052.867,316.365 1052.968,317.448C1053.096,318.813 1053.802,320.809 1054.376,322.44C1055.112,324.531 1056.488,327.859 1057.384,329.992C1058.128,331.761 1058.846,333.608 1059.752,335.24C1060.64,336.838 1061.939,338.323 1062.824,339.784C1063.65,341.147 1064.616,343.091 1065.064,344.008C1065.263,344.414 1065.627,344.851 1065.512,345.288C1065.32,346.024 1064.382,347.349 1063.912,348.424C1063.208,350.035 1061.864,354.6 1061.288,354.952C1060.712,355.304 1060.659,351.987 1060.456,350.536C1060.258,349.115 1060.243,347.325 1060.072,346.248C1059.954,345.501 1059.765,344.751 1059.432,344.072C1058.681,342.536 1056.565,339.123 1055.562,337.032C1054.711,335.256 1054.183,333.342 1053.416,331.528C1052.365,329.043 1050.174,324.317 1049.256,322.12C1048.742,320.887 1048.318,319.617 1047.912,318.344C1047.454,316.904 1046.707,315.016 1046.504,313.48C1046.315,312.04 1046.483,310.515 1046.696,309.128C1046.905,307.773 1047.347,306.387 1047.784,305.16C1048.201,303.991 1048.787,302.653 1049.32,301.768C1049.757,301.043 1050.332,300.388 1050.984,299.848C1051.784,299.187 1052.875,297.894 1054.12,297.8C1056.947,297.587 1064.179,297.427 1067.945,298.568C1071.348,299.6 1074.835,302.6 1076.712,304.648Z" style="fill:rgb(200,88,61);stroke:black;stroke-width:1px;"/>
        <path d="M1106.664,298.12L1108.2,313.416L1105.128,313.544L1101.032,296.328L1106.664,298.12Z" style="fill:rgb(255,191,64);stroke:rgb(255,191,64);stroke-width:1px;"/>
        <path d="M1095.4,295.112L1099.112,311.688L1089.064,308.936L1084.392,291.912L1095.4,295.112Z" style="fill:rgb(255,191,64);stroke:rgb(255,191,64);stroke-width:1px;"/>
        <path d="M1075.176,289.416L1080.616,306.504L1067.688,302.92L1061.672,285.96L1075.176,289.416Z" style="fill:rgb(255,191,64);stroke:rgb(255,191,64);stroke-width:1px;"/>
        <path d="M1051.496,283.144L1056.68,300.552L1046.504,297.288L1039.976,279.432L1051.496,283.144Z" style="fill:rgb(255,191,64);stroke:rgb(255,191,64);stroke-width:1px;"/>
        <path d="M1052.2,283.08L1060.84,285.256L1066.536,302.344L1057.384,300.104L1052.2,283.08Z" style="stroke:black;stroke-width:1px;"/>
        <path d="M1076.456,289.992L1083.624,292.616L1088.232,308.744L1081.448,306.376L1076.456,289.992Z" style="stroke:black;stroke-width:1px;"/>
        <path d="M1096.424,295.368L1100.648,296.52L1104.744,313.48L1099.112,312.328L1096.424,295.368Z" style="stroke:black;stroke-width:1px;"/>
        <path d="M1057.468,264.793C1057.647,264.887 1063.416,261.184 1064.585,260.134C1064.992,259.769 1064.691,259.002 1064.482,258.496C1062.835,254.511 1056.359,240.038 1054.703,236.224C1054.619,236.03 1054.469,235.414 1054.549,235.609C1056.085,239.321 1062.426,254.502 1063.919,258.496C1064.053,258.855 1063.784,259.303 1063.509,259.571C1062.434,260.621 1057.289,264.7 1057.468,264.793Z" style="fill:none;stroke:white;stroke-width:1px;"/>
        <path d="M1062.434,262.336C1062.92,262.083 1064.184,261.286 1063.817,261.448C1063.45,261.61 1060.463,263.161 1060.233,263.309C1060.002,263.457 1061.837,262.646 1062.434,262.336Z" style="fill:none;stroke:white;stroke-width:1px;"/>
        <path d="M1040.316,273.293C1038.976,274.216 1033.165,276.542 1031.356,277.192C1030.762,277.406 1029.939,277.296 1029.461,277.192C1029.085,277.11 1028.152,276.757 1028.489,276.569C1030.144,275.646 1037.423,272.2 1039.394,271.654C1039.998,271.487 1040.832,272.937 1040.316,273.293Z" style="fill:white;stroke:white;stroke-width:1px;"/>
        <path d="M1076.987,305.813L1089.787,345.813L1090.387,350.413L1076.987,305.813Z" style="fill:none;stroke:white;stroke-width:1px;"/>
        <path d="M1059.368,302.344L1052.2,311.013L1052.2,315.013L1059.368,302.344Z" style="fill:white;stroke:white;stroke-width:1px;"/>
        <path d="M1061.587,350.413L1061.336,352.576L1064.448,345.181C1063.719,343.629 1062.915,341.985 1061.501,339.61L1061.587,350.413Z" style="fill:white;stroke:white;stroke-width:1px;"/>
        <path d="M1060.886,338.637L1054.793,325.735L1052.899,320.819L1052.2,315.648C1053.705,324.702 1056.923,332.042 1060.886,338.637Z" style="fill:none;stroke:white;stroke-width:1px;"/>
        <path d="M1090.48,350.823C1090.523,350.952 1090.496,351.118 1090.48,351.181" style="fill:none;stroke:white;stroke-width:1px;"/>
        <path d="M1090.633,350.976C1090.62,351.015 1090.642,351.012 1090.582,351.488" style="fill:none;stroke:white;stroke-width:1px;"/>
        <path d="M1031.336,276.744L1037.8,295.304L1026.28,292.616L1020.2,273.8L1031.336,276.744Z" style="fill:rgb(255,191,64);stroke:rgb(255,191,64);stroke-width:1px;"/>
        <path d="M1090.633,350.823C1090.55,351.321 1090.76,351.337 1090.531,351.795" style="fill:none;stroke:white;stroke-width:1px;"/>
        <path d="M1090.48,350.362C1090.353,351.375 1090.759,351.39 1090.531,351.847" style="fill:none;stroke:white;stroke-width:1px;"/>
        <path d="M1040.681,247.68L1045.545,256.064L1040.681,247.68Z" style="fill:white;stroke:white;stroke-width:1px;"/>
    </g>
</svg>
