<?xml version="1.0" encoding="UTF-8" standalone="no"?>
<!DOCTYPE svg PUBLIC "-//W3C//DTD SVG 1.1//EN" "http://www.w3.org/Graphics/SVG/1.1/DTD/svg11.dtd">
<svg width="100%" height="100%" viewBox="0 0 78 129" version="1.1" xmlns="http://www.w3.org/2000/svg" xmlns:xlink="http://www.w3.org/1999/xlink" xml:space="preserve" xmlns:serif="http://www.serif.com/" style="fill-rule:evenodd;clip-rule:evenodd;stroke-linecap:round;stroke-linejoin:round;stroke-miterlimit:1.5;">
    <g transform="matrix(1,0,0,1,-1494.078314,-56.667249)">
        <g transform="matrix(1,0,0,1,85.656172,0)">
            <path d="M1432.18,90.828L1423.337,81.292L1423.51,77.13L1430.446,70.888L1438.422,83.893L1443.103,83.546L1447.265,82.679L1447.091,78.517L1440.502,60.831C1440.502,60.831 1439.115,58.751 1441.716,58.751C1444.317,58.751 1447.438,60.485 1447.438,60.485L1457.148,85.8L1449.172,90.828L1461.483,117.357L1473.794,145.621L1480.73,163.48L1484,178.218L1482.464,183L1455.588,128.281L1451.946,126.894L1445.5,142.153C1445.5,142.153 1446.224,148.915 1446.918,150.996C1447.612,153.076 1450.212,158.452 1450.733,160.012C1451.253,161.573 1455.934,169.549 1455.934,169.549L1454.374,177.351L1451.6,183L1450.559,171.456L1436.861,138.858L1445.5,117.878L1435.127,101.925L1432.526,99.151L1422.123,106.087L1410.679,94.296L1410.505,88.401L1415.014,88.574L1424.03,97.244L1432.18,90.828Z" style="fill:none;stroke:black;stroke-width:4.17px;"/>
        </g>
    </g>
</svg>
