<?xml version="1.0" encoding="UTF-8" standalone="no"?>
<!DOCTYPE svg PUBLIC "-//W3C//DTD SVG 1.1//EN" "http://www.w3.org/Graphics/SVG/1.1/DTD/svg11.dtd">
<svg width="100%" height="100%" viewBox="0 0 55 62" version="1.1" xmlns="http://www.w3.org/2000/svg" xmlns:xlink="http://www.w3.org/1999/xlink" xml:space="preserve" xmlns:serif="http://www.serif.com/" style="fill-rule:evenodd;clip-rule:evenodd;stroke-linecap:round;stroke-linejoin:round;stroke-miterlimit:1.5;">
    <g transform="matrix(1,0,0,1,-17.039335,-21.333333)">
        <g transform="matrix(1.862263,0,0,1.862263,-47.041451,-43.179188)">
            <path d="M46,42L44,39L43,38L47.074,35L49,40.074L51,38.463L52.924,38.474L54.476,38.492L59,41.537L60.463,41.926C60.037,43.687 58.883,44.177 57.389,44.074L56.554,41.983L53.389,40.463L51.463,40.926C50.217,41.324 50.37,42.098 51,43L52,44L53.982,47.476L55,49.926L57.759,51.926L59.759,53.852L60.759,55.778L60.869,57.856L61.148,59.852L63.198,60.751L63.444,62.852L61.296,62.537L58.794,61.431L58.222,57.389L57.296,55.389L55.333,53.459L53.074,52.315L51.537,57.778C51.057,58.567 51.218,59.716 51.753,61.075L53.074,63.315L52.538,65.105L50.582,67.473L49,65.926L50,63.389L49.318,61.42C48.636,60.085 48.36,58.718 48.537,57.315L50,51L48.089,47.794L47,44.537L43,46L37,43L34.936,42.715C34.5,41.516 34.874,40.414 36.537,39.463L38,41.074L40.056,42.182L43,44L46,42Z" style="fill:none;stroke:white;stroke-width:0.72px;"/>
        </g>
    </g>
</svg>
