<?xml version="1.0" standalone="no"?>
<!DOCTYPE svg PUBLIC "-//W3C//DTD SVG 20010904//EN"
 "http://www.w3.org/TR/2001/REC-SVG-20010904/DTD/svg10.dtd">
<svg version="1.0" xmlns="http://www.w3.org/2000/svg"
 width="1600.000000pt" height="1200.000000pt" viewBox="0 0 1600.000000 1200.000000"
 preserveAspectRatio="xMidYMid meet">

<g transform="translate(0.000000,1200.000000) scale(0.100000,-0.100000)"
fill="#000000" stroke="none">
<path d="M8850 8239 c-10 -17 -18 -20 -46 -16 -19 3 -34 2 -34 -3 0 -13 38
-32 50 -25 5 3 11 2 13 -2 6 -10 -9 -430 -19 -536 -7 -76 -8 -78 -39 -91 -36
-15 -49 -31 -40 -46 4 -6 16 -5 33 2 15 6 57 10 94 9 39 -1 69 3 73 9 12 19
-16 40 -52 40 l-36 0 7 53 c3 28 9 170 12 315 4 144 10 262 13 262 12 0 73 41
68 46 -2 3 -16 -1 -30 -7 -21 -9 -30 -9 -41 0 -12 10 -17 8 -26 -10z"/>
<path d="M7360 8218 c-44 -23 -82 -70 -67 -84 4 -4 20 4 35 18 41 39 66 48
127 48 46 0 60 -4 81 -25 21 -21 24 -31 19 -58 -13 -58 -42 -101 -104 -150
-34 -27 -17 -37 67 -37 87 0 133 -17 166 -63 47 -64 13 -207 -69 -290 -42 -43
-107 -87 -129 -87 -25 0 -28 -18 -6 -30 28 -15 90 15 148 70 114 110 152 266
89 362 -27 41 -98 78 -149 78 -36 0 -49 12 -28 25 16 10 48 77 55 117 20 105
-116 166 -235 106z"/>
<path d="M10777 8145 c-104 -188 -126 -352 -50 -371 26 -7 103 11 103 24 0 4
-17 6 -38 4 -54 -5 -77 22 -68 82 7 41 11 47 49 64 42 19 75 48 64 58 -3 3
-23 -4 -46 -16 -39 -19 -41 -19 -41 -2 0 10 18 55 40 101 62 127 52 171 -13
56z"/>
<path d="M9504 8084 c-49 -83 -103 -221 -121 -308 -16 -80 -16 -87 0 -120 22
-46 67 -52 120 -14 36 26 31 30 -21 16 -62 -16 -76 0 -68 74 3 32 12 74 20 93
15 35 16 35 76 35 78 0 79 23 2 28 -29 2 -52 7 -52 13 0 5 20 54 45 108 25 54
45 103 45 110 0 24 -20 9 -46 -35z"/>
<path d="M6895 8099 c-11 -17 -17 -397 -8 -499 9 -94 9 -93 17 116 4 116 11
226 15 244 l7 33 24 -48 c42 -81 84 -86 105 -12 15 54 22 53 30 -5 12 -99 45
-293 55 -328 13 -46 34 -75 48 -66 8 5 8 14 1 34 -6 15 -28 137 -48 270 -38
242 -48 275 -77 251 -7 -6 -21 -44 -30 -85 -10 -41 -22 -73 -28 -71 -6 2 -27
42 -46 90 -32 81 -50 102 -65 76z"/>
<path d="M6331 7975 c0 -33 8 -152 19 -265 11 -113 20 -230 20 -261 0 -79 7
-83 122 -69 51 6 121 17 156 25 61 14 128 42 120 50 -2 2 -56 -4 -120 -15 -65
-10 -145 -21 -180 -25 l-63 -7 -29 281 c-32 310 -43 385 -45 286z"/>
<path d="M7357 7888 c12 -244 20 -339 31 -350 6 -6 14 -10 16 -7 2 2 -4 92
-15 199 -10 107 -19 207 -19 223 0 15 -4 27 -9 27 -5 0 -6 -42 -4 -92z"/>
<path d="M8390 7938 c0 -11 -35 -24 -122 -46 -139 -36 -176 -55 -157 -79 16
-18 68 -13 225 23 59 13 109 22 111 21 1 -2 -11 -19 -26 -38 -21 -25 -27 -40
-20 -50 7 -11 22 -1 69 48 86 87 81 117 -18 129 -51 5 -62 4 -62 -8z m15 -63
c-65 -17 -101 -17 -50 0 22 8 54 13 70 13 24 0 19 -3 -20 -13z"/>
<path d="M9163 7874 c-10 -14 -26 -35 -37 -46 -21 -23 -31 -62 -41 -160 -6
-59 -5 -68 9 -68 8 0 18 10 21 23 2 12 11 52 20 90 16 71 49 147 65 147 20 0
34 -49 44 -155 10 -95 14 -110 30 -113 18 -4 19 2 12 94 -8 113 -20 159 -49
192 -27 29 -52 28 -74 -4z"/>
<path d="M10484 7890 c-59 -24 -85 -114 -42 -144 33 -23 66 -20 133 14 l60 30
-45 -7 c-25 -4 -63 -7 -85 -8 -47 0 -57 21 -30 62 16 23 21 25 66 20 58 -7 69
14 18 32 -37 13 -46 13 -75 1z"/>
<path d="M9687 7850 c-34 -27 -67 -98 -67 -143 0 -66 63 -97 128 -63 31 16 76
63 52 53 -56 -21 -92 -29 -114 -23 -21 5 -26 12 -26 37 0 64 71 155 87 113 5
-13 -4 -27 -30 -49 -59 -51 -41 -64 25 -19 46 32 58 67 33 94 -23 26 -56 25
-88 0z"/>
<path d="M9989 7837 c-13 -12 -32 -33 -41 -47 l-17 -25 -1 30 c0 17 -4 36 -9
44 -15 24 -23 -7 -23 -90 0 -125 15 -131 66 -25 37 76 74 116 107 116 11 0 19
5 19 10 0 20 -76 11 -101 -13z"/>
<path d="M10186 7829 c-34 -40 -36 -103 -5 -119 17 -10 27 -7 59 14 37 24 38
25 55 6 21 -23 77 -36 100 -23 13 8 8 12 -24 22 -36 10 -45 20 -71 71 -27 53
-34 60 -59 60 -20 0 -37 -9 -55 -31z m74 -11 c0 -18 -50 -79 -61 -73 -15 10
-11 30 12 59 21 27 49 35 49 14z"/>
<path d="M7505 7076 c-37 -16 -58 -40 -53 -61 3 -15 6 -15 28 3 34 26 102 44
137 36 48 -11 83 -52 83 -97 0 -45 -12 -71 -53 -114 -35 -37 -31 -63 10 -63
15 0 47 -9 70 -20 50 -22 64 -57 39 -95 -23 -35 -96 -86 -121 -84 -34 2 -38 0
-25 -16 31 -37 139 4 179 69 12 18 21 49 21 68 0 56 -30 85 -113 112 -17 5
-16 8 4 36 31 41 39 139 15 175 -39 60 -145 84 -221 51z"/>
<path d="M9455 7029 c-60 -82 -142 -247 -151 -304 -5 -40 -3 -49 17 -71 16
-17 33 -24 59 -24 41 0 100 18 100 30 0 4 -29 11 -65 15 -64 6 -65 7 -65 36 0
16 7 46 15 65 12 29 18 34 35 29 25 -8 80 3 80 16 0 5 -20 9 -45 9 -25 0 -45
2 -45 5 0 11 33 71 81 146 47 73 60 109 39 109 -6 0 -30 -28 -55 -61z"/>
<path d="M8898 7051 c-47 -16 -87 -44 -102 -75 -21 -44 -11 -49 27 -11 39 39
110 64 135 48 22 -13 27 -64 12 -122 -15 -61 -67 -146 -97 -160 l-25 -11 7
120 c5 82 4 120 -3 120 -14 0 -19 -19 -32 -120 -15 -125 -13 -225 5 -240 19
-15 23 -4 27 64 l3 50 27 -30 c14 -16 41 -46 58 -66 23 -27 40 -38 59 -38 38
0 46 12 17 24 -14 6 -41 33 -59 59 l-35 49 34 50 c61 89 84 222 47 267 -21 24
-66 34 -105 22z"/>
<path d="M6495 7011 c-52 -23 -123 -103 -131 -148 -4 -18 -4 -36 -2 -39 3 -2
20 19 39 48 52 79 98 111 167 116 51 4 62 1 90 -23 45 -37 55 -84 37 -163 -28
-119 -137 -282 -189 -282 -12 0 -28 -6 -35 -12 -10 -11 -12 23 -9 181 2 144 0
195 -9 198 -17 6 -21 -34 -28 -262 -3 -110 -8 -226 -12 -257 -5 -48 -3 -58 10
-58 17 0 25 24 34 110 5 49 9 60 22 56 9 -2 25 -7 37 -10 11 -4 44 -35 72 -71
29 -36 66 -72 83 -81 32 -16 79 -12 79 7 0 6 -4 7 -10 4 -17 -11 -48 14 -109
89 l-61 75 55 73 c78 103 118 203 119 295 1 80 -13 109 -74 151 -41 28 -118
29 -175 3z"/>
<path d="M7116 6938 c-7 -18 -21 -54 -30 -80 -10 -27 -22 -48 -27 -48 -5 0
-23 25 -40 55 -29 52 -58 70 -74 46 -16 -27 -82 -627 -70 -639 12 -13 26 19
35 79 5 35 19 151 31 256 11 106 24 205 28 220 l8 28 17 -32 c39 -76 92 -76
126 -1 l18 40 6 -28 c3 -16 17 -101 31 -189 29 -182 48 -258 77 -297 21 -31
40 -35 57 -14 9 11 7 15 -8 19 -28 7 -45 72 -91 349 -21 128 -42 241 -45 251
-11 27 -35 20 -49 -15z"/>
<path d="M7483 6688 c5 -200 9 -228 33 -228 12 0 13 26 9 158 -8 221 -13 262
-32 262 -14 0 -15 -22 -10 -192z"/>
<path d="M8296 6871 c-11 -18 3 -31 34 -31 64 0 33 -19 -90 -55 -72 -21 -130
-42 -130 -47 0 -14 73 -9 149 12 40 12 75 19 78 17 2 -3 -13 -18 -33 -35 -24
-20 -35 -36 -31 -46 4 -9 10 -16 14 -16 4 0 49 24 98 53 81 48 90 55 90 82 0
25 -7 33 -39 49 -47 23 -130 33 -140 17z"/>
<path d="M10195 6868 c-11 -6 -30 -20 -42 -31 -20 -18 -23 -18 -23 -4 0 38
-17 11 -47 -75 -23 -65 -29 -96 -22 -103 12 -12 22 -1 79 92 21 34 50 69 65
79 43 28 50 9 47 -115 -2 -97 -1 -109 18 -126 24 -22 33 -16 22 15 -5 13 -5
42 -1 64 30 151 -16 248 -96 204z"/>
<path d="M9720 6853 c-6 -10 -25 -47 -43 -83 -40 -81 -61 -85 -65 -12 -2 35
-7 52 -16 52 -34 0 -36 -97 -3 -135 19 -23 26 -25 50 -16 44 17 107 131 107
194 0 9 -4 17 -10 17 -5 0 -14 -8 -20 -17z"/>
<path d="M9890 6829 c-28 -29 -40 -36 -40 -24 0 9 -6 15 -12 13 -15 -5 -50
-126 -43 -145 10 -27 35 -10 69 46 42 68 107 131 137 131 11 0 17 5 14 10 -3
6 -24 10 -46 10 -33 0 -45 -7 -79 -41z"/>
<path d="M9130 6808 c-45 -31 -69 -66 -76 -110 -5 -31 -2 -41 20 -63 23 -23
32 -26 64 -20 20 4 55 15 77 25 l40 19 -70 -6 c-57 -4 -73 -2 -84 10 -26 32
30 127 75 127 24 0 15 -16 -23 -43 -31 -22 -34 -27 -17 -27 32 0 89 43 92 69
7 45 -45 54 -98 19z"/>
<path d="M6660 5927 c-108 -39 -171 -81 -203 -136 -23 -40 -9 -40 29 0 40 42
96 73 178 98 124 38 211 23 262 -45 34 -44 26 -92 -26 -171 -47 -72 -91 -117
-155 -158 -42 -27 -139 -75 -151 -75 -2 0 -4 58 -4 129 0 118 -8 159 -25 131
-3 -5 -10 -119 -15 -252 -6 -134 -13 -258 -16 -275 -5 -26 -3 -33 9 -33 9 0
18 8 21 18 9 28 25 163 26 213 0 43 1 46 24 42 34 -7 156 59 224 121 96 88
164 217 148 280 -9 38 -65 97 -111 117 -55 25 -136 24 -215 -4z"/>
<path d="M8385 5901 c-46 -21 -105 -75 -105 -98 0 -10 14 -4 48 21 59 43 95
57 144 58 52 1 68 -16 68 -67 0 -55 -59 -147 -124 -194 -25 -18 -46 -36 -46
-41 0 -32 61 -7 113 46 101 102 131 232 64 279 -29 21 -113 19 -162 -4z"/>
<path d="M8316 5692 c-3 -10 -13 -98 -21 -197 -15 -176 -12 -216 15 -189 11
11 29 223 30 342 0 59 -12 82 -24 44z"/>
<path d="M9135 5663 c-43 -22 -75 -54 -75 -74 0 -10 21 -30 50 -48 79 -49 66
-79 -45 -100 l-40 -8 28 -11 c35 -15 56 -15 96 -1 77 27 66 110 -20 154 -36
19 -30 31 27 57 24 10 44 25 44 33 0 19 -27 18 -65 -2z"/>
<path d="M9335 5636 c-65 -28 -116 -125 -96 -180 19 -48 89 -73 169 -60 l47 7
-64 14 c-36 7 -75 20 -88 28 -57 38 1 165 74 165 32 0 29 -18 -7 -38 -36 -20
-38 -32 -7 -32 53 0 90 77 48 100 -25 13 -39 12 -76 -4z"/>
<path d="M8847 5584 c-11 -12 -8 -131 5 -159 17 -39 56 -44 84 -11 35 40 58
146 35 160 -14 9 -28 -15 -35 -59 -8 -45 -33 -88 -45 -80 -5 3 -12 33 -16 67
-8 67 -17 93 -28 82z"/>
<path d="M8618 5553 c-47 -49 -64 -137 -33 -163 13 -11 21 -9 45 8 36 27 44
28 31 3 -12 -22 -3 -35 15 -20 10 8 17 7 29 -4 22 -23 52 -30 72 -18 16 9 16
10 1 11 -32 0 -58 48 -58 109 0 96 -48 131 -102 74z m62 -29 c0 -20 -60 -95
-71 -88 -9 5 13 68 32 91 15 18 39 16 39 -3z"/>
<path d="M7566 5458 c-19 -10 -19 -11 -1 -24 22 -16 30 -13 -139 -58 -71 -19
-133 -39 -139 -45 -26 -26 34 -21 166 13 78 20 147 36 152 36 5 0 -3 -12 -18
-26 -28 -26 -31 -44 -8 -52 13 -4 121 100 121 118 0 26 -104 56 -134 38z"/>
</g>
</svg>
