<?xml version="1.0" standalone="no"?>
<!DOCTYPE svg PUBLIC "-//W3C//DTD SVG 20010904//EN"
 "http://www.w3.org/TR/2001/REC-SVG-20010904/DTD/svg10.dtd">
<svg version="1.0" xmlns="http://www.w3.org/2000/svg"
 width="1600.000000pt" height="1200.000000pt" viewBox="0 0 1600.000000 1200.000000"
 preserveAspectRatio="xMidYMid meet">

<g transform="translate(0.000000,1200.000000) scale(0.100000,-0.100000)"
fill="#000000" stroke="none">
<path d="M9391 9066 c-19 -23 -63 -30 -73 -12 -13 23 -27 20 -40 -10 -11 -24
-16 -26 -60 -22 -27 3 -51 1 -54 -4 -11 -18 19 -38 57 -38 l39 0 0 -52 c0
-265 -35 -864 -52 -885 -5 -6 -21 -14 -36 -18 -48 -12 -89 -63 -64 -79 5 -3
33 4 63 16 46 17 60 19 97 9 86 -22 142 -9 142 34 0 19 -7 26 -37 34 -21 6
-50 11 -65 11 -33 0 -32 -6 -17 145 6 61 14 265 17 454 l7 345 50 25 c27 14
51 34 53 44 4 21 -11 22 -27 3z"/>
<path d="M7051 9031 c-60 -21 -126 -80 -136 -123 -10 -39 9 -36 57 8 57 52
112 74 183 74 77 0 137 -27 154 -68 27 -65 -41 -205 -131 -272 -45 -33 -63
-69 -35 -71 6 -1 62 -2 122 -3 152 -3 211 -30 257 -120 17 -33 20 -54 16 -125
-4 -72 -10 -98 -38 -156 -54 -113 -197 -247 -283 -264 -38 -8 -47 -35 -17 -51
72 -39 285 132 356 285 117 254 25 466 -216 492 -62 6 -74 19 -44 44 43 36 91
175 80 234 -21 110 -179 166 -325 116z"/>
<path d="M12238 8963 c-9 -21 -38 -76 -62 -123 -25 -47 -55 -114 -67 -150 -12
-36 -25 -67 -28 -70 -8 -6 -15 -82 -15 -167 0 -51 4 -67 23 -87 32 -34 63 -39
132 -20 77 22 77 39 1 39 -82 0 -92 11 -92 101 0 81 10 98 61 109 34 8 131 95
113 102 -7 2 -40 -10 -75 -27 -34 -16 -64 -28 -67 -26 -8 8 20 80 75 191 54
109 63 157 33 163 -9 1 -22 -13 -32 -35z"/>
<path d="M10275 8809 c-128 -217 -220 -511 -196 -621 12 -52 50 -88 93 -88 38
0 108 32 134 62 19 21 19 21 -6 14 -49 -15 -141 -19 -153 -7 -18 18 -11 145
11 221 l19 65 89 5 c87 5 114 12 114 30 0 13 -68 30 -122 30 -35 0 -48 4 -48
14 0 17 55 146 99 233 30 60 41 123 22 123 -5 0 -30 -36 -56 -81z"/>
<path d="M6321 8846 c-22 -26 -34 -282 -27 -566 3 -151 10 -291 15 -310 8 -30
9 -26 10 36 3 194 23 628 30 647 7 19 13 13 45 -50 37 -74 71 -107 103 -101
24 5 60 61 68 108 4 22 11 40 15 40 10 0 12 -10 35 -185 48 -359 87 -495 142
-495 14 0 18 36 4 44 -4 3 -11 20 -14 38 -28 163 -60 363 -82 513 -30 212 -40
251 -62 259 -30 12 -54 -28 -82 -135 -14 -56 -32 -104 -38 -106 -15 -5 -40 44
-83 162 -44 118 -54 131 -79 101z"/>
<path d="M5457 8723 c-10 -9 -8 -121 3 -233 15 -157 49 -538 57 -644 6 -76 12
-101 25 -110 12 -7 52 -7 138 2 207 21 394 67 440 109 19 17 15 17 -140 -7
-244 -39 -403 -60 -408 -56 -2 3 -13 85 -23 183 -10 98 -25 243 -34 323 -8 80
-22 210 -31 290 -8 79 -16 146 -18 147 -1 2 -6 0 -9 -4z"/>
<path d="M7013 8508 c20 -454 30 -538 65 -538 12 0 14 11 9 58 -8 76 -44 457
-52 555 -4 44 -11 77 -17 77 -8 0 -9 -47 -5 -152z"/>
<path d="M8580 8585 c-6 -15 -20 -27 -37 -31 -167 -36 -340 -87 -370 -109 -30
-21 -29 -43 2 -57 19 -9 45 -8 108 1 103 16 346 70 370 82 30 16 20 -10 -24
-62 -40 -48 -47 -81 -18 -87 8 -1 51 35 97 81 75 78 82 88 82 125 0 47 -6 53
-80 69 -90 19 -119 17 -130 -12z m85 -74 c-12 -11 -145 -41 -177 -40 -23 0
-23 0 2 10 24 10 140 36 170 38 8 1 10 -2 5 -8z"/>
<path d="M9768 8511 c-13 -11 -33 -38 -43 -60 -10 -23 -24 -41 -31 -41 -19 0
-41 -88 -55 -214 -7 -74 -8 -111 -1 -118 23 -23 39 2 56 89 34 168 87 303 120
303 35 0 66 -123 66 -260 0 -116 22 -174 57 -152 12 8 -1 290 -15 337 -37 119
-94 162 -154 116z"/>
<path d="M11734 8502 c-33 -21 -74 -93 -74 -130 0 -68 57 -109 137 -97 48 7
183 71 183 86 0 6 -8 8 -17 5 -87 -26 -226 -35 -238 -16 -10 16 3 62 25 90 17
23 26 25 94 25 41 0 77 3 80 6 3 3 -3 14 -15 24 -31 29 -134 32 -175 7z"/>
<path d="M10573 8471 c-88 -55 -152 -223 -114 -295 17 -31 68 -56 113 -56 36
0 121 44 152 79 28 31 15 34 -40 9 -66 -29 -150 -31 -170 -3 -37 50 56 234
112 223 34 -6 28 -38 -16 -79 -22 -21 -47 -39 -55 -39 -19 0 -20 -26 -2 -33
21 -8 69 17 110 57 30 30 37 44 37 75 0 67 -67 99 -127 62z"/>
<path d="M11072 8470 c-39 -9 -105 -69 -123 -111 -15 -37 -29 -37 -29 0 0 48
-12 91 -25 91 -19 0 -25 -35 -25 -156 0 -171 37 -195 90 -57 47 123 117 203
178 203 13 0 22 6 22 15 0 8 -6 15 -14 15 -8 0 -20 2 -28 4 -7 2 -28 0 -46 -4z"/>
<path d="M11320 8433 c-69 -66 -77 -170 -14 -193 34 -13 57 -6 101 33 l35 31
17 -21 c33 -43 123 -67 175 -47 24 9 19 24 -6 24 -13 0 -42 9 -66 20 -37 17
-47 28 -74 87 -41 89 -54 103 -95 103 -25 0 -44 -9 -73 -37z m99 -17 c10 -12
6 -23 -18 -57 -17 -23 -40 -49 -51 -56 -18 -12 -21 -12 -26 1 -10 26 5 67 36
97 32 33 42 35 59 15z"/>
<path d="M7290 7296 c-88 -25 -140 -65 -140 -108 0 -25 17 -22 57 8 38 29 118
54 173 54 46 0 108 -37 138 -80 44 -65 15 -175 -67 -255 -23 -21 -41 -45 -41
-52 0 -15 31 -33 58 -33 41 0 127 -33 154 -60 56 -57 28 -131 -75 -200 -50
-34 -68 -41 -102 -38 -38 2 -42 0 -36 -30 1 -11 47 -32 69 -32 31 0 119 47
162 87 72 64 95 138 66 207 -24 57 -76 94 -173 122 -9 2 -3 19 17 51 96 150
53 304 -99 358 -51 18 -99 18 -161 1z"/>
<path d="M10237 7258 c-135 -166 -267 -434 -267 -541 0 -63 17 -91 66 -107 56
-19 204 9 204 38 0 11 -72 22 -140 22 -65 0 -77 16 -62 80 6 27 18 65 26 84
l14 34 72 0 c71 -1 99 10 85 32 -5 9 -27 11 -71 7 -41 -3 -64 -1 -64 6 0 15
68 137 143 255 62 97 73 132 42 132 -8 0 -29 -19 -48 -42z"/>
<path d="M9316 7225 c-88 -36 -149 -106 -132 -151 5 -14 13 -9 43 26 44 51
122 90 180 90 35 0 46 -5 59 -25 50 -76 -53 -362 -147 -409 -18 -9 -34 -14
-36 -12 -2 2 1 81 7 176 6 94 9 174 6 177 -15 15 -35 -12 -45 -59 -15 -76 -31
-268 -31 -374 0 -69 4 -95 15 -104 32 -26 44 -5 47 82 l3 83 50 -51 c28 -28
67 -71 88 -97 41 -50 88 -68 126 -47 27 14 20 26 -17 33 -21 4 -43 25 -82 79
-29 40 -53 77 -53 83 0 5 18 37 40 70 117 175 137 391 42 440 -40 21 -96 18
-163 -10z"/>
<path d="M5768 7206 c-97 -28 -198 -107 -239 -188 -19 -38 -37 -128 -25 -128
3 0 30 37 59 83 69 107 131 154 230 177 85 19 186 -34 216 -113 29 -77 2 -216
-69 -357 -45 -88 -72 -127 -142 -197 -41 -43 -57 -53 -84 -53 -18 0 -36 -6
-41 -12 -4 -7 -10 119 -13 281 -4 222 -8 295 -17 298 -28 10 -36 -56 -44 -377
-4 -179 -12 -354 -18 -390 -6 -36 -11 -75 -11 -88 0 -29 29 -41 45 -18 14 18
35 144 35 206 0 28 4 40 14 40 8 0 18 -4 21 -10 3 -5 21 -10 40 -10 31 0 42
-9 120 -104 104 -128 169 -166 226 -136 27 15 24 30 -7 30 -40 0 -59 15 -120
93 -31 39 -75 91 -97 114 l-40 42 52 57 c69 76 104 128 151 226 71 149 96 291
65 377 -43 123 -180 193 -307 157z"/>
<path d="M6668 7108 c-9 -7 -28 -51 -43 -98 -32 -102 -52 -142 -68 -138 -7 2
-28 34 -47 70 -80 151 -118 144 -145 -25 -23 -143 -43 -311 -65 -550 -22 -240
-24 -303 -10 -312 20 -12 40 65 55 207 9 79 22 204 30 278 23 212 48 384 56
394 4 5 19 -14 33 -42 60 -118 135 -118 185 -1 12 27 25 49 29 49 5 0 23 -93
41 -207 67 -430 95 -533 157 -582 32 -25 38 -26 58 -5 22 22 20 37 -4 29 -17
-5 -23 0 -36 30 -24 58 -60 230 -103 500 -23 138 -45 276 -51 309 -9 56 -32
106 -48 106 -5 0 -15 -6 -24 -12z"/>
<path d="M7204 6964 c-11 -43 6 -541 19 -582 7 -22 20 -38 31 -40 18 -4 19 4
11 234 -10 344 -16 408 -37 412 -12 2 -19 -5 -24 -24z"/>
<path d="M8448 6979 c-10 -5 -18 -19 -18 -29 0 -15 7 -20 28 -21 38 -1 98 -24
85 -32 -10 -7 -95 -33 -315 -98 -68 -20 -82 -31 -52 -43 30 -11 72 -6 193 25
67 17 127 29 134 26 6 -2 -12 -21 -40 -43 -56 -42 -65 -56 -57 -79 11 -27 44
-16 164 55 108 63 160 107 160 132 0 27 -62 68 -139 92 -89 28 -116 31 -143
15z"/>
<path d="M11325 6966 c-16 -8 -43 -27 -59 -44 -31 -33 -46 -33 -46 -1 0 12 -5
19 -10 17 -13 -4 -102 -266 -98 -288 2 -8 12 -15 23 -15 13 0 34 26 71 90 63
111 127 185 159 185 50 0 62 -50 45 -197 -12 -105 -12 -118 4 -147 17 -32 53
-62 63 -52 3 3 0 19 -7 36 -11 26 -11 47 1 118 19 118 17 190 -6 241 -28 64
-79 84 -140 57z"/>
<path d="M10607 6952 c-9 -9 -29 -50 -46 -91 -38 -93 -76 -151 -100 -151 -23
0 -31 26 -31 108 0 46 -4 62 -14 62 -57 0 -59 -186 -2 -225 59 -42 126 5 186
130 31 63 40 93 40 133 0 55 -7 63 -33 34z"/>
<path d="M10914 6952 c-16 -11 -46 -38 -66 -61 -40 -47 -44 -48 -51 -21 -6 25
-23 26 -36 2 -18 -34 -52 -184 -46 -203 6 -19 31 -25 51 -11 6 4 31 39 54 77
23 39 56 88 73 109 35 44 111 96 140 96 10 0 17 5 15 13 -7 21 -99 20 -134 -1z"/>
<path d="M9747 6896 c-87 -32 -157 -126 -157 -211 0 -112 80 -136 238 -74 55
23 71 44 25 35 -161 -30 -220 -6 -199 80 13 51 121 142 143 120 8 -8 -30 -49
-73 -78 -63 -43 -37 -51 43 -14 66 31 93 59 93 95 0 50 -49 70 -113 47z"/>
<path d="M6023 5555 c-170 -46 -299 -120 -366 -212 -56 -77 -45 -81 31 -13
143 131 403 210 546 168 26 -8 62 -33 99 -68 51 -51 57 -60 57 -98 0 -54 -30
-128 -82 -205 -85 -125 -176 -203 -318 -271 -41 -20 -88 -43 -104 -52 -16 -8
-30 -13 -31 -12 -2 2 -6 94 -10 206 -5 135 -11 202 -18 199 -22 -7 -28 -68
-36 -372 -5 -170 -15 -345 -22 -388 -9 -57 -10 -80 -1 -89 36 -36 59 47 73
262 4 74 8 139 9 143 0 4 9 3 19 -3 53 -28 297 113 409 236 100 109 171 250
172 338 0 64 -34 123 -101 176 -85 67 -206 87 -326 55z"/>
<path d="M8629 5517 c-65 -18 -129 -58 -177 -111 -39 -42 -54 -76 -34 -76 5 0
41 25 81 55 77 58 146 85 219 85 35 0 49 -6 74 -31 28 -27 30 -34 24 -75 -12
-94 -92 -217 -187 -289 -84 -64 -94 -77 -63 -89 45 -17 174 86 246 198 86 133
89 259 7 319 -33 24 -129 31 -190 14z"/>
<path d="M8461 5123 c-13 -88 -41 -425 -41 -490 0 -37 3 -43 20 -43 12 0 24
10 30 24 8 23 40 451 40 544 0 34 -3 42 -19 42 -16 0 -20 -12 -30 -77z"/>
<path d="M9760 5151 c-76 -24 -160 -89 -160 -126 0 -25 27 -52 92 -89 47 -26
68 -61 53 -86 -13 -21 -96 -50 -142 -50 -56 0 -54 -19 4 -39 81 -29 192 18
210 87 12 47 -42 115 -133 168 -17 10 -17 13 -4 29 8 10 43 31 78 46 64 29 71
36 50 57 -13 13 -13 13 -48 3z"/>
<path d="M10001 5084 c-112 -56 -172 -212 -114 -300 27 -42 80 -58 185 -58
130 -1 150 17 38 33 -91 14 -124 25 -157 55 -63 54 7 208 106 236 69 19 68
-27 -2 -63 -48 -25 -47 -37 4 -37 33 0 47 6 75 34 42 42 44 76 8 105 -36 28
-79 26 -143 -5z"/>
<path d="M9276 5011 c-14 -22 -18 -139 -7 -193 20 -96 86 -127 141 -68 60 64
93 250 45 250 -19 0 -31 -27 -45 -100 -11 -56 -42 -120 -59 -120 -14 0 -31 58
-31 104 -1 77 -27 154 -44 127z"/>
<path d="M8940 4984 c-68 -58 -114 -211 -75 -254 26 -28 59 -25 100 11 30 27
35 28 35 12 0 -10 -5 -24 -12 -31 -20 -20 5 -37 30 -21 18 11 24 10 39 -3 26
-24 74 -40 100 -33 31 7 29 18 -6 32 -47 17 -64 54 -68 146 -5 105 -9 123 -33
147 -28 28 -72 25 -110 -6z m78 -62 c3 -22 -81 -142 -99 -142 -25 0 11 111 48
153 22 23 47 18 51 -11z"/>
<path d="M7320 4815 c-12 -14 -12 -18 1 -26 8 -5 20 -9 27 -9 6 0 12 -4 12 -9
0 -8 -68 -28 -328 -97 -56 -15 -110 -32 -119 -39 -23 -17 -8 -35 30 -35 32 0
356 79 411 100 43 16 44 4 3 -38 -41 -42 -44 -53 -22 -72 12 -10 21 -8 47 8
45 28 150 151 146 171 -8 43 -179 81 -208 46z"/>
</g>
</svg>
