<svg xmlns="http://www.w3.org/2000/svg" xmlns:xlink="http://www.w3.org/1999/xlink" width="816" zoomAndPan="magnify" viewBox="0 0 612 791.999994" height="1056" preserveAspectRatio="xMidYMid meet" version="1.0"><defs><filter x="0%" y="0%" width="100%" height="100%" id="9c7a0c651a"><feColorMatrix values="0 0 0 0 1 0 0 0 0 1 0 0 0 0 1 0 0 0 1 0" color-interpolation-filters="sRGB"/></filter><mask id="8ce24a582b"><g filter="url(#9c7a0c651a)"><rect x="-61.2" width="734.4" fill="#000000" y="-79.199999" height="950.399992" fill-opacity="0.7"/></g></mask><clipPath id="3a63357ffe"><path d="M 0.121094 0.625 L 420 0.625 L 420 167.875 L 0.121094 167.875 Z M 0.121094 0.625 " clip-rule="nonzero"/></clipPath><clipPath id="ef98a7e8c3"><rect x="0" width="421" y="0" height="169"/></clipPath></defs><g mask="url(#8ce24a582b)"><g transform="matrix(1, 0, 0, 1, 96, 228)"><g clip-path="url(#ef98a7e8c3)"><g clip-path="url(#3a63357ffe)"><path fill="#000000" d="M 333.863281 89.109375 C 333.996094 90.183594 335.03125 90.945312 336.066406 90.894531 L 345.902344 90.429688 C 347.066406 90.378906 347.972656 89.472656 348.101562 88.347656 L 349.140625 67.703125 C 351.339844 90.957031 353.925781 119.203125 353.925781 119.203125 C 354.058594 120.367188 354.964844 121.246094 356.128906 121.222656 C 357.292969 121.183594 358.328125 120.25 358.328125 119.089844 L 359.363281 90.390625 C 359.363281 90.390625 360.398438 96.96875 360.398438 96.96875 C 360.65625 97.992188 361.433594 98.765625 362.46875 98.832031 C 363.503906 98.894531 364.539062 98.238281 364.800781 97.242188 L 368.296875 85 C 368.296875 85 372.179688 96.839844 372.179688 96.839844 C 372.566406 97.757812 373.34375 98.378906 374.378906 98.367188 C 375.285156 98.351562 376.191406 97.71875 376.449219 96.789062 L 378.519531 89.652344 C 378.519531 89.652344 379.683594 93.089844 379.683594 93.089844 C 379.945312 94.007812 380.851562 94.628906 381.753906 94.628906 L 417.738281 94.628906 C 419.035156 94.628906 419.941406 93.636719 419.941406 92.417969 C 419.941406 91.203125 419.035156 90.207031 417.738281 90.207031 L 383.441406 90.207031 C 383.441406 90.207031 380.589844 81.484375 380.589844 81.484375 C 380.332031 80.566406 379.425781 79.933594 378.519531 79.945312 C 377.484375 79.957031 376.707031 80.589844 376.449219 81.523438 L 374.25 88.722656 C 374.25 88.722656 370.367188 76.816406 370.367188 76.816406 C 370.105469 75.886719 369.203125 75.265625 368.164062 75.277344 C 367.261719 75.289062 366.355469 75.9375 366.09375 76.867188 L 363.246094 86.652344 C 363.246094 86.652344 360.140625 67.804688 360.140625 67.804688 C 360.011719 66.683594 358.976562 65.878906 357.808594 65.957031 C 356.644531 66.023438 355.738281 66.953125 355.738281 68.089844 L 355.222656 84.367188 C 355.222656 84.367188 350.820312 37.183594 350.820312 37.183594 C 350.691406 36.03125 349.785156 35.152344 348.621094 35.164062 C 347.453125 35.191406 346.417969 36.097656 346.417969 37.257812 L 343.703125 86.109375 C 343.703125 86.109375 338.136719 86.371094 338.136719 86.371094 C 338.136719 86.371094 335.417969 49.347656 335.417969 49.347656 C 335.289062 48.183594 334.382812 47.277344 333.21875 47.292969 C 332.054688 47.316406 331.019531 48.246094 331.019531 49.425781 L 328.167969 121.09375 C 326.488281 93.542969 324.675781 63.371094 324.675781 63.371094 C 324.675781 62.234375 323.640625 61.328125 322.605469 61.292969 C 321.4375 61.253906 320.402344 62.066406 320.273438 63.203125 L 316.390625 91.359375 C 316.390625 91.359375 313.933594 79.828125 313.933594 79.828125 C 313.671875 78.921875 313.027344 78.238281 312.117188 78.109375 C 311.210938 77.96875 310.308594 78.40625 309.789062 79.222656 L 303.316406 90.75 C 303.316406 90.75 292.316406 91.488281 292.316406 91.488281 C 292.316406 91.488281 289.078125 80.589844 289.078125 80.589844 C 288.820312 79.671875 288.042969 79.039062 287.007812 79.015625 C 286.101562 78.988281 285.195312 79.570312 284.9375 80.476562 L 281.441406 90.082031 C 281.441406 90.082031 276.136719 49.683594 276.136719 49.683594 C 276.007812 48.53125 274.96875 47.691406 273.804688 47.769531 C 272.640625 47.847656 271.734375 48.816406 271.734375 49.980469 L 271.734375 97.203125 C 271.734375 97.203125 265.003906 97.203125 265.003906 97.203125 C 265.003906 97.203125 260.214844 65.957031 260.214844 65.957031 C 260.085938 64.859375 259.050781 64.042969 258.015625 64.082031 C 256.847656 64.121094 255.945312 65 255.8125 66.113281 L 255.039062 75.058594 C 255.039062 75.058594 250.378906 2.730469 250.378906 2.730469 C 250.378906 1.542969 249.34375 0.625 248.179688 0.652344 C 247.011719 0.675781 245.976562 1.632812 245.976562 2.824219 C 245.976562 2.824219 244.8125 67.921875 243.90625 111.589844 C 243.90625 111.589844 240.152344 72.148438 240.152344 72.148438 C 240.023438 71.0625 239.117188 70.210938 238.082031 70.144531 C 236.917969 70.09375 236.011719 70.855469 235.75 71.941406 L 231.867188 92.03125 C 231.867188 92.03125 228.890625 81.988281 228.890625 81.988281 C 228.632812 81.199219 227.984375 80.617188 227.210938 80.449219 C 226.433594 80.292969 225.527344 80.589844 225.007812 81.226562 L 217.242188 90.714844 C 217.242188 90.714844 206.5 91.089844 206.5 91.089844 C 206.5 91.089844 203.003906 85.21875 203.003906 85.21875 C 202.617188 84.574219 201.839844 84.171875 201.191406 84.144531 C 200.414062 84.121094 199.640625 84.46875 199.25 85.089844 L 195.367188 90.546875 C 195.367188 90.546875 193.816406 84.84375 193.816406 84.84375 C 193.683594 84.003906 192.910156 83.382812 192.132812 83.242188 C 191.226562 83.097656 190.320312 83.460938 189.929688 84.171875 L 182.941406 94.214844 C 182.941406 94.214844 177.894531 80.914062 177.894531 80.914062 C 177.636719 80.046875 176.730469 79.480469 175.824219 79.480469 C 174.917969 79.480469 174.140625 80.046875 173.753906 80.914062 L 169.996094 90.75 C 169.996094 90.75 166.761719 73.367188 166.761719 73.367188 C 166.632812 72.332031 165.726562 71.566406 164.691406 71.554688 C 163.65625 71.53125 162.75 72.242188 162.492188 73.261719 L 157.441406 94.851562 C 157.441406 94.851562 153.300781 58.589844 153.300781 58.589844 C 153.171875 57.4375 152.136719 56.597656 150.96875 56.625 C 149.933594 56.648438 148.898438 57.554688 148.898438 58.707031 L 146.3125 100.796875 C 143.851562 61.71875 140.226562 4.59375 140.226562 4.59375 C 140.097656 3.417969 139.191406 2.5 138.027344 2.523438 C 136.730469 2.539062 135.824219 3.480469 135.824219 4.65625 L 132.460938 100.253906 C 132.460938 100.253906 126.636719 63.164062 126.636719 63.164062 C 126.507812 62.066406 125.472656 61.265625 124.4375 61.292969 C 123.273438 61.304688 122.367188 62.144531 122.234375 63.242188 L 119 91.5 C 119 91.5 117.316406 84.871094 117.316406 84.871094 C 117.058594 84.109375 116.539062 83.5 115.761719 83.292969 C 114.988281 83.074219 114.082031 83.292969 113.5625 83.863281 L 109.550781 87.804688 C 109.550781 87.804688 106.054688 76.363281 106.054688 76.363281 C 105.667969 75.40625 104.761719 74.773438 103.855469 74.8125 C 102.820312 74.863281 101.914062 75.574219 101.785156 76.558594 L 98.03125 93.609375 C 98.03125 93.609375 92.078125 72.691406 92.078125 72.691406 C 91.6875 71.671875 90.78125 71 89.746094 71.089844 C 88.710938 71.179688 87.804688 72.007812 87.675781 73.066406 L 85.21875 96.800781 C 85.21875 96.800781 80.425781 26.039062 80.425781 26.039062 C 80.296875 24.890625 79.390625 23.984375 78.226562 23.972656 C 77.0625 23.957031 76.15625 24.847656 76.027344 26 L 70.589844 87.441406 C 70.589844 87.441406 67.613281 81.613281 67.613281 81.613281 C 67.222656 80.785156 66.320312 80.320312 65.414062 80.421875 C 64.378906 80.539062 63.730469 81.199219 63.472656 82.105469 L 61.398438 90.582031 C 61.398438 90.582031 55.574219 75.304688 55.574219 75.304688 C 55.1875 74.347656 54.152344 73.765625 53.246094 73.90625 C 52.210938 74.039062 51.433594 74.851562 51.304688 75.871094 L 48.328125 105.902344 C 48.328125 105.902344 44.054688 42.832031 44.054688 42.832031 C 43.925781 41.695312 43.019531 40.789062 41.855469 40.761719 C 40.691406 40.738281 39.785156 41.589844 39.65625 42.726562 L 34.609375 87.160156 C 34.609375 87.160156 30.851562 76.300781 30.851562 76.300781 C 30.464844 75.355469 29.558594 74.761719 28.523438 74.8125 C 27.617188 74.878906 26.710938 75.601562 26.582031 76.570312 L 23.734375 89.796875 C 23.734375 89.796875 19.074219 78.949219 19.074219 78.949219 C 18.816406 78.214844 18.039062 77.695312 17.261719 77.617188 C 16.488281 77.539062 15.710938 77.914062 15.191406 78.574219 L 9.882812 86.410156 C 9.882812 86.410156 2.636719 86.007812 2.636719 86.007812 C 1.472656 85.941406 0.4375 86.875 0.308594 88.101562 C 0.308594 89.316406 1.210938 90.363281 2.507812 90.429688 L 10.917969 90.894531 C 11.566406 90.945312 12.34375 90.582031 12.859375 89.9375 L 16.617188 84.390625 C 16.617188 84.390625 22.441406 97.964844 22.441406 97.964844 C 22.828125 98.84375 23.734375 99.386719 24.769531 99.285156 C 25.675781 99.195312 26.453125 98.484375 26.710938 97.539062 L 29.300781 85.285156 C 29.300781 85.285156 33.703125 97.808594 33.703125 97.808594 C 33.960938 98.792969 34.996094 99.402344 36.03125 99.285156 C 37.066406 99.167969 37.84375 98.351562 37.972656 97.332031 L 41.207031 67.714844 C 41.207031 67.714844 45.609375 132.675781 45.609375 132.675781 C 45.738281 133.824219 46.644531 134.730469 47.808594 134.742188 C 48.972656 134.769531 50.011719 133.902344 50.140625 132.753906 L 54.800781 85.632812 C 54.800781 85.632812 59.847656 98.804688 59.847656 98.804688 C 60.105469 99.710938 61.011719 100.292969 62.046875 100.226562 C 62.953125 100.164062 63.859375 99.476562 63.988281 98.535156 L 66.320312 88.890625 C 66.320312 88.890625 70.203125 96.234375 70.203125 96.234375 C 70.589844 97.113281 71.625 97.578125 72.53125 97.394531 C 73.566406 97.203125 74.34375 96.386719 74.34375 95.40625 C 74.34375 95.40625 77.96875 54.75 77.96875 54.75 C 79.910156 83.242188 82.5 122.890625 82.5 122.890625 C 82.628906 124.039062 83.535156 124.929688 84.699219 124.957031 C 85.863281 124.96875 86.898438 124.105469 87.03125 122.964844 C 87.03125 122.964844 90.914062 84.921875 90.914062 84.921875 C 90.914062 84.921875 96.21875 103.292969 96.21875 103.292969 C 96.476562 104.261719 97.382812 104.921875 98.417969 104.894531 C 99.453125 104.867188 100.230469 104.144531 100.488281 103.148438 L 104.246094 85.671875 C 104.246094 85.671875 106.445312 92.613281 106.445312 92.613281 C 106.703125 93.351562 107.351562 93.917969 107.996094 94.101562 C 108.773438 94.292969 109.550781 94.0625 110.199219 93.519531 L 113.953125 89.730469 C 113.953125 89.730469 117.703125 104.171875 117.703125 104.171875 C 117.964844 105.191406 118.871094 105.890625 119.90625 105.824219 C 121.070312 105.746094 121.847656 104.933594 121.976562 103.875 L 124.824219 79.972656 C 124.824219 79.972656 131.554688 124.015625 131.554688 124.015625 C 131.8125 125.136719 132.847656 125.953125 133.882812 125.875 C 135.050781 125.808594 135.957031 124.890625 135.957031 123.742188 L 138.675781 49.566406 C 141.132812 87.855469 144.238281 136.875 144.238281 136.875 C 144.238281 138.039062 145.277344 138.945312 146.441406 138.945312 C 147.605469 138.945312 148.511719 138.027344 148.640625 136.863281 L 151.746094 84.367188 C 151.746094 84.367188 154.464844 108.0625 154.464844 108.0625 C 154.59375 109.132812 155.5 109.960938 156.535156 110.027344 C 157.703125 110.078125 158.609375 109.367188 158.867188 108.320312 L 164.433594 84.585938 C 164.433594 84.585938 167.148438 99.347656 167.148438 99.347656 C 167.28125 100.332031 168.054688 101.066406 169.089844 101.160156 C 170.125 101.25 171.03125 100.667969 171.421875 99.738281 L 175.824219 87.945312 C 175.824219 87.945312 180.351562 99.738281 180.351562 99.738281 C 180.613281 100.5 181.257812 101.054688 182.164062 101.144531 C 182.941406 101.25 183.71875 100.886719 184.234375 100.203125 L 190.835938 90.597656 C 190.835938 90.597656 192.390625 96.273438 192.390625 96.273438 C 192.648438 97.097656 193.296875 97.71875 194.074219 97.863281 C 194.980469 98.015625 195.886719 97.65625 196.273438 96.957031 L 200.933594 90.414062 C 200.933594 90.414062 203.390625 94.488281 203.390625 94.488281 C 203.78125 95.1875 204.558594 95.597656 205.332031 95.5625 L 218.40625 95.09375 C 219.054688 95.082031 219.703125 94.785156 220.089844 94.28125 L 225.785156 87.25 C 225.785156 87.25 230.1875 101.921875 230.1875 101.921875 C 230.574219 102.890625 231.480469 103.535156 232.515625 103.5 C 233.421875 103.445312 234.328125 102.710938 234.457031 101.703125 L 237.175781 87.84375 C 237.175781 87.84375 243.257812 150.460938 243.257812 150.460938 C 243.390625 151.636719 244.296875 152.519531 245.460938 152.464844 C 246.625 152.425781 247.660156 151.46875 247.660156 150.292969 C 247.660156 150.292969 248.566406 98.507812 249.472656 56.328125 C 249.472656 56.328125 252.578125 105.152344 252.578125 105.152344 C 252.578125 106.316406 253.613281 107.207031 254.777344 107.222656 C 255.945312 107.234375 256.847656 106.355469 256.980469 105.203125 L 258.660156 84.949219 C 258.660156 84.949219 260.992188 99.75 260.992188 99.75 C 261.121094 100.835938 262.027344 101.636719 263.191406 101.636719 L 273.933594 101.636719 C 275.101562 101.636719 276.136719 100.640625 276.136719 99.414062 L 276.136719 83.640625 C 276.136719 83.640625 278.207031 99.710938 278.207031 99.710938 C 278.335938 100.71875 279.242188 101.507812 280.148438 101.609375 C 281.183594 101.726562 282.21875 101.121094 282.480469 100.164062 C 282.480469 100.164062 286.75 88.335938 286.75 88.335938 C 286.75 88.335938 288.5625 94.449219 288.5625 94.449219 C 288.949219 95.445312 289.855469 96.105469 290.890625 96.027344 L 304.871094 95.09375 C 305.648438 95.042969 306.292969 94.617188 306.683594 93.957031 L 310.824219 86.511719 C 310.824219 86.511719 314.707031 104.546875 314.707031 104.546875 C 314.96875 105.59375 315.875 106.328125 316.910156 106.289062 C 318.074219 106.25 318.980469 105.449219 319.109375 104.375 C 319.109375 104.375 321.566406 86.074219 321.566406 86.074219 C 321.566406 86.074219 326.355469 165.78125 326.355469 165.78125 C 326.355469 166.957031 327.390625 167.875 328.558594 167.863281 C 329.722656 167.847656 330.757812 166.917969 330.757812 165.742188 Z M 333.863281 89.109375 " fill-opacity="1" fill-rule="evenodd"/></g></g></g></g></svg>