<svg xmlns="http://www.w3.org/2000/svg" xmlns:xlink="http://www.w3.org/1999/xlink" width="816" zoomAndPan="magnify" viewBox="0 0 612 791.999994" height="1056" preserveAspectRatio="xMidYMid meet" version="1.0"><defs><clipPath id="8ae1af072b"><path d="M 96.121094 309 L 101 309 L 101 318 L 96.121094 318 Z M 96.121094 309 " clip-rule="nonzero"/></clipPath><clipPath id="1424509da8"><path d="M 148 279 L 153 279 L 153 347.949219 L 148 347.949219 Z M 148 279 " clip-rule="nonzero"/></clipPath><clipPath id="60aa96e86c"><path d="M 355 279 L 361 279 L 361 347.949219 L 355 347.949219 Z M 355 279 " clip-rule="nonzero"/></clipPath><clipPath id="84e27e6377"><path d="M 459 279 L 465 279 L 465 347.949219 L 459 347.949219 Z M 459 279 " clip-rule="nonzero"/></clipPath><clipPath id="2510fa334e"><path d="M 511 309 L 516.121094 309 L 516.121094 318 L 511 318 Z M 511 309 " clip-rule="nonzero"/></clipPath></defs><path fill="#231f20" d="M 111.28125 306.277344 C 110.085938 306.277344 109.117188 307.242188 109.117188 308.433594 L 109.117188 318.457031 C 109.117188 319.648438 110.085938 320.613281 111.28125 320.613281 C 112.476562 320.613281 113.445312 319.648438 113.445312 318.457031 L 113.445312 308.433594 C 113.445312 307.242188 112.476562 306.277344 111.28125 306.277344 Z M 111.28125 306.277344 " fill-opacity="1" fill-rule="nonzero"/><g clip-path="url(#8ae1af072b)"><path fill="#231f20" d="M 98.292969 309.023438 C 97.097656 309.023438 96.128906 309.988281 96.128906 311.179688 L 96.128906 315.710938 C 96.128906 316.902344 97.097656 317.867188 98.292969 317.867188 C 99.488281 317.867188 100.457031 316.902344 100.457031 315.710938 L 100.457031 311.179688 C 100.457031 309.988281 99.488281 309.023438 98.292969 309.023438 Z M 98.292969 309.023438 " fill-opacity="1" fill-rule="nonzero"/></g><path fill="#231f20" d="M 202.210938 309.722656 C 201.015625 309.722656 200.046875 310.6875 200.046875 311.875 L 200.046875 315.015625 C 200.046875 316.207031 201.015625 317.171875 202.210938 317.171875 C 203.40625 317.171875 204.375 316.207031 204.375 315.015625 L 204.375 311.875 C 204.375 310.6875 203.40625 309.722656 202.210938 309.722656 Z M 202.210938 309.722656 " fill-opacity="1" fill-rule="nonzero"/><path fill="#231f20" d="M 319.117188 309.722656 C 317.921875 309.722656 316.953125 310.6875 316.953125 311.875 L 316.953125 315.015625 C 316.953125 316.207031 317.921875 317.171875 319.117188 317.171875 C 320.3125 317.171875 321.28125 316.207031 321.28125 315.015625 L 321.28125 311.875 C 321.28125 310.6875 320.3125 309.722656 319.117188 309.722656 Z M 319.117188 309.722656 " fill-opacity="1" fill-rule="nonzero"/><path fill="#231f20" d="M 124.273438 297.78125 C 123.078125 297.78125 122.105469 298.746094 122.105469 299.9375 L 122.105469 326.953125 C 122.105469 328.144531 123.078125 329.109375 124.273438 329.109375 C 125.46875 329.109375 126.4375 328.144531 126.4375 326.953125 L 126.4375 299.9375 C 126.4375 298.746094 125.46875 297.78125 124.273438 297.78125 Z M 124.273438 297.78125 " fill-opacity="1" fill-rule="nonzero"/><path fill="#231f20" d="M 137.261719 293.140625 C 136.066406 293.140625 135.097656 294.105469 135.097656 295.296875 L 135.097656 331.59375 C 135.097656 332.785156 136.066406 333.75 137.261719 333.75 C 138.457031 333.75 139.425781 332.785156 139.425781 331.59375 L 139.425781 295.296875 C 139.425781 294.105469 138.457031 293.140625 137.261719 293.140625 Z M 137.261719 293.140625 " fill-opacity="1" fill-rule="nonzero"/><g clip-path="url(#1424509da8)"><path fill="#231f20" d="M 150.25 279.011719 C 149.054688 279.011719 148.085938 279.976562 148.085938 281.167969 L 148.085938 345.722656 C 148.085938 346.914062 149.054688 347.878906 150.25 347.878906 C 151.445312 347.878906 152.417969 346.914062 152.417969 345.722656 L 152.417969 281.167969 C 152.417969 279.976562 151.445312 279.011719 150.25 279.011719 Z M 150.25 279.011719 " fill-opacity="1" fill-rule="nonzero"/></g><path fill="#231f20" d="M 163.242188 281.59375 C 162.046875 281.59375 161.074219 282.558594 161.074219 283.75 L 161.074219 343.140625 C 161.074219 344.332031 162.046875 345.296875 163.242188 345.296875 C 164.4375 345.296875 165.40625 344.332031 165.40625 343.140625 L 165.40625 283.75 C 165.40625 282.558594 164.4375 281.59375 163.242188 281.59375 Z M 163.242188 281.59375 " fill-opacity="1" fill-rule="nonzero"/><path fill="#231f20" d="M 176.230469 285.640625 C 175.035156 285.640625 174.066406 286.605469 174.066406 287.796875 L 174.066406 339.09375 C 174.066406 340.285156 175.035156 341.25 176.230469 341.25 C 177.425781 341.25 178.394531 340.285156 178.394531 339.09375 L 178.394531 287.796875 C 178.394531 286.605469 177.425781 285.640625 176.230469 285.640625 Z M 176.230469 285.640625 " fill-opacity="1" fill-rule="nonzero"/><path fill="#231f20" d="M 189.21875 299.472656 C 188.023438 299.472656 187.054688 300.4375 187.054688 301.628906 L 187.054688 325.261719 C 187.054688 326.453125 188.023438 327.417969 189.21875 327.417969 C 190.417969 327.417969 191.386719 326.453125 191.386719 325.261719 L 191.386719 301.628906 C 191.386719 300.4375 190.417969 299.472656 189.21875 299.472656 Z M 189.21875 299.472656 " fill-opacity="1" fill-rule="nonzero"/><path fill="#231f20" d="M 215.199219 307.390625 C 214.003906 307.390625 213.035156 308.355469 213.035156 309.546875 L 213.035156 317.34375 C 213.035156 318.535156 214.003906 319.5 215.199219 319.5 C 216.394531 319.5 217.363281 318.535156 217.363281 317.34375 L 217.363281 309.546875 C 217.363281 308.355469 216.394531 307.390625 215.199219 307.390625 Z M 215.199219 307.390625 " fill-opacity="1" fill-rule="nonzero"/><path fill="#231f20" d="M 228.191406 296.261719 C 226.992188 296.261719 226.023438 297.226562 226.023438 298.417969 L 226.023438 328.476562 C 226.023438 329.664062 226.992188 330.632812 228.191406 330.632812 C 229.386719 330.632812 230.355469 329.664062 230.355469 328.476562 L 230.355469 298.417969 C 230.355469 297.226562 229.386719 296.261719 228.191406 296.261719 Z M 228.191406 296.261719 " fill-opacity="1" fill-rule="nonzero"/><path fill="#231f20" d="M 241.179688 283.972656 C 239.984375 283.972656 239.015625 284.9375 239.015625 286.128906 L 239.015625 340.761719 C 239.015625 341.953125 239.984375 342.917969 241.179688 342.917969 C 242.375 342.917969 243.34375 341.953125 243.34375 340.761719 L 243.34375 286.128906 C 243.34375 284.9375 242.375 283.972656 241.179688 283.972656 Z M 241.179688 283.972656 " fill-opacity="1" fill-rule="nonzero"/><path fill="#231f20" d="M 254.167969 289.882812 C 252.972656 289.882812 252.003906 290.847656 252.003906 292.035156 L 252.003906 334.855469 C 252.003906 336.042969 252.972656 337.011719 254.167969 337.011719 C 255.363281 337.011719 256.332031 336.042969 256.332031 334.855469 L 256.332031 292.035156 C 256.332031 290.847656 255.363281 289.882812 254.167969 289.882812 Z M 254.167969 289.882812 " fill-opacity="1" fill-rule="nonzero"/><path fill="#231f20" d="M 267.160156 282.800781 C 265.964844 282.800781 264.992188 283.765625 264.992188 284.957031 L 264.992188 341.933594 C 264.992188 343.125 265.964844 344.089844 267.160156 344.089844 C 268.355469 344.089844 269.324219 343.125 269.324219 341.933594 L 269.324219 284.957031 C 269.324219 283.765625 268.355469 282.800781 267.160156 282.800781 Z M 267.160156 282.800781 " fill-opacity="1" fill-rule="nonzero"/><path fill="#231f20" d="M 280.148438 284.222656 C 278.953125 284.222656 277.984375 285.1875 277.984375 286.378906 L 277.984375 340.511719 C 277.984375 341.703125 278.953125 342.667969 280.148438 342.667969 C 281.34375 342.667969 282.3125 341.703125 282.3125 340.511719 L 282.3125 286.378906 C 282.3125 285.1875 281.34375 284.222656 280.148438 284.222656 Z M 280.148438 284.222656 " fill-opacity="1" fill-rule="nonzero"/><path fill="#231f20" d="M 293.136719 297.09375 C 291.941406 297.09375 290.972656 298.058594 290.972656 299.25 L 290.972656 327.640625 C 290.972656 328.832031 291.941406 329.796875 293.136719 329.796875 C 294.332031 329.796875 295.304688 328.832031 295.304688 327.640625 L 295.304688 299.25 C 295.304688 298.058594 294.332031 297.09375 293.136719 297.09375 Z M 293.136719 297.09375 " fill-opacity="1" fill-rule="nonzero"/><path fill="#231f20" d="M 306.128906 302.632812 C 304.933594 302.632812 303.960938 303.597656 303.960938 304.789062 L 303.960938 322.101562 C 303.960938 323.292969 304.933594 324.257812 306.128906 324.257812 C 307.324219 324.257812 308.292969 323.292969 308.292969 322.101562 L 308.292969 304.789062 C 308.292969 303.597656 307.324219 302.632812 306.128906 302.632812 Z M 306.128906 302.632812 " fill-opacity="1" fill-rule="nonzero"/><path fill="#231f20" d="M 332.105469 300.644531 C 330.910156 300.644531 329.941406 301.609375 329.941406 302.800781 L 329.941406 324.09375 C 329.941406 325.28125 330.910156 326.25 332.105469 326.25 C 333.304688 326.25 334.273438 325.28125 334.273438 324.09375 L 334.273438 302.800781 C 334.273438 301.609375 333.304688 300.644531 332.105469 300.644531 Z M 332.105469 300.644531 " fill-opacity="1" fill-rule="nonzero"/><path fill="#231f20" d="M 345.097656 290.207031 C 343.902344 290.207031 342.933594 291.171875 342.933594 292.363281 L 342.933594 334.527344 C 342.933594 335.71875 343.902344 336.683594 345.097656 336.683594 C 346.292969 336.683594 347.261719 335.71875 347.261719 334.527344 L 347.261719 292.363281 C 347.261719 291.171875 346.292969 290.207031 345.097656 290.207031 Z M 345.097656 290.207031 " fill-opacity="1" fill-rule="nonzero"/><g clip-path="url(#60aa96e86c)"><path fill="#231f20" d="M 358.085938 279.011719 C 356.890625 279.011719 355.921875 279.976562 355.921875 281.167969 L 355.921875 345.722656 C 355.921875 346.914062 356.890625 347.878906 358.085938 347.878906 C 359.28125 347.878906 360.25 346.914062 360.25 345.722656 L 360.25 281.167969 C 360.25 279.976562 359.28125 279.011719 358.085938 279.011719 Z M 358.085938 279.011719 " fill-opacity="1" fill-rule="nonzero"/></g><path fill="#231f20" d="M 371.078125 281.59375 C 369.878906 281.59375 368.910156 282.558594 368.910156 283.75 L 368.910156 343.140625 C 368.910156 344.332031 369.878906 345.296875 371.078125 345.296875 C 372.273438 345.296875 373.242188 344.332031 373.242188 343.140625 L 373.242188 283.75 C 373.242188 282.558594 372.273438 281.59375 371.078125 281.59375 Z M 371.078125 281.59375 " fill-opacity="1" fill-rule="nonzero"/><path fill="#231f20" d="M 384.066406 281.496094 C 382.871094 281.496094 381.902344 282.460938 381.902344 283.652344 L 381.902344 343.238281 C 381.902344 344.429688 382.871094 345.394531 384.066406 345.394531 C 385.261719 345.394531 386.230469 344.429688 386.230469 343.238281 L 386.230469 283.652344 C 386.230469 282.460938 385.261719 281.496094 384.066406 281.496094 Z M 384.066406 281.496094 " fill-opacity="1" fill-rule="nonzero"/><path fill="#231f20" d="M 397.054688 296.441406 C 395.859375 296.441406 394.890625 297.40625 394.890625 298.597656 L 394.890625 328.292969 C 394.890625 329.484375 395.859375 330.449219 397.054688 330.449219 C 398.25 330.449219 399.222656 329.484375 399.222656 328.292969 L 399.222656 298.597656 C 399.222656 297.40625 398.25 296.441406 397.054688 296.441406 Z M 397.054688 296.441406 " fill-opacity="1" fill-rule="nonzero"/><path fill="#231f20" d="M 410.046875 305.199219 C 408.851562 305.199219 407.878906 306.164062 407.878906 307.355469 L 407.878906 319.535156 C 407.878906 320.726562 408.851562 321.691406 410.046875 321.691406 C 411.242188 321.691406 412.210938 320.726562 412.210938 319.535156 L 412.210938 307.355469 C 412.210938 306.164062 411.242188 305.199219 410.046875 305.199219 Z M 410.046875 305.199219 " fill-opacity="1" fill-rule="nonzero"/><path fill="#231f20" d="M 423.035156 308.679688 C 421.839844 308.679688 420.871094 309.644531 420.871094 310.835938 L 420.871094 316.054688 C 420.871094 317.246094 421.839844 318.210938 423.035156 318.210938 C 424.230469 318.210938 425.199219 317.246094 425.199219 316.054688 L 425.199219 310.835938 C 425.199219 309.644531 424.230469 308.679688 423.035156 308.679688 Z M 423.035156 308.679688 " fill-opacity="1" fill-rule="nonzero"/><path fill="#231f20" d="M 436.023438 301.164062 C 434.828125 301.164062 433.859375 302.128906 433.859375 303.320312 L 433.859375 323.570312 C 433.859375 324.761719 434.828125 325.726562 436.023438 325.726562 C 437.21875 325.726562 438.191406 324.761719 438.191406 323.570312 L 438.191406 303.320312 C 438.191406 302.128906 437.21875 301.164062 436.023438 301.164062 Z M 436.023438 301.164062 " fill-opacity="1" fill-rule="nonzero"/><path fill="#231f20" d="M 449.015625 293.617188 C 447.820312 293.617188 446.851562 294.582031 446.851562 295.773438 L 446.851562 331.117188 C 446.851562 332.308594 447.820312 333.273438 449.015625 333.273438 C 450.210938 333.273438 451.179688 332.308594 451.179688 331.117188 L 451.179688 295.773438 C 451.179688 294.582031 450.210938 293.617188 449.015625 293.617188 Z M 449.015625 293.617188 " fill-opacity="1" fill-rule="nonzero"/><g clip-path="url(#84e27e6377)"><path fill="#231f20" d="M 462.003906 279.011719 C 460.808594 279.011719 459.839844 279.976562 459.839844 281.167969 L 459.839844 345.722656 C 459.839844 346.914062 460.808594 347.878906 462.003906 347.878906 C 463.199219 347.878906 464.167969 346.914062 464.167969 345.722656 L 464.167969 281.167969 C 464.167969 279.976562 463.199219 279.011719 462.003906 279.011719 Z M 462.003906 279.011719 " fill-opacity="1" fill-rule="nonzero"/></g><path fill="#231f20" d="M 474.992188 285.640625 C 473.796875 285.640625 472.828125 286.605469 472.828125 287.796875 L 472.828125 339.09375 C 472.828125 340.285156 473.796875 341.25 474.992188 341.25 C 476.191406 341.25 477.160156 340.285156 477.160156 339.09375 L 477.160156 287.796875 C 477.160156 286.605469 476.191406 285.640625 474.992188 285.640625 Z M 474.992188 285.640625 " fill-opacity="1" fill-rule="nonzero"/><path fill="#231f20" d="M 487.984375 297.78125 C 486.789062 297.78125 485.820312 298.746094 485.820312 299.9375 L 485.820312 326.953125 C 485.820312 328.144531 486.789062 329.109375 487.984375 329.109375 C 489.179688 329.109375 490.148438 328.144531 490.148438 326.953125 L 490.148438 299.9375 C 490.148438 298.746094 489.179688 297.78125 487.984375 297.78125 Z M 487.984375 297.78125 " fill-opacity="1" fill-rule="nonzero"/><path fill="#231f20" d="M 500.972656 307.390625 C 499.777344 307.390625 498.808594 308.355469 498.808594 309.546875 L 498.808594 317.34375 C 498.808594 318.535156 499.777344 319.5 500.972656 319.5 C 502.167969 319.5 503.136719 318.535156 503.136719 317.34375 L 503.136719 309.546875 C 503.136719 308.355469 502.167969 307.390625 500.972656 307.390625 Z M 500.972656 307.390625 " fill-opacity="1" fill-rule="nonzero"/><g clip-path="url(#2510fa334e)"><path fill="#231f20" d="M 513.964844 309.023438 C 512.765625 309.023438 511.796875 309.988281 511.796875 311.179688 L 511.796875 315.710938 C 511.796875 316.902344 512.765625 317.867188 513.964844 317.867188 C 515.160156 317.867188 516.128906 316.902344 516.128906 315.710938 L 516.128906 311.179688 C 516.128906 309.988281 515.160156 309.023438 513.964844 309.023438 Z M 513.964844 309.023438 " fill-opacity="1" fill-rule="nonzero"/></g></svg>