<svg xmlns="http://www.w3.org/2000/svg" xmlns:xlink="http://www.w3.org/1999/xlink" width="816" zoomAndPan="magnify" viewBox="0 0 612 791.999994" height="1056" preserveAspectRatio="xMidYMid meet" version="1.0"><defs><clipPath id="3742cd4fea"><path d="M 96.121094 293.445312 L 516 293.445312 L 516 460.695312 L 96.121094 460.695312 Z M 96.121094 293.445312 " clip-rule="nonzero"/></clipPath></defs><g clip-path="url(#3742cd4fea)"><path fill="#000000" d="M 429.863281 381.933594 C 429.996094 383.003906 431.03125 383.769531 432.066406 383.714844 L 441.902344 383.25 C 443.066406 383.199219 443.972656 382.292969 444.101562 381.167969 L 445.140625 360.527344 C 447.339844 383.78125 449.925781 412.027344 449.925781 412.027344 C 450.058594 413.191406 450.964844 414.070312 452.128906 414.042969 C 453.292969 414.003906 454.328125 413.074219 454.328125 411.910156 L 455.363281 383.210938 C 455.363281 383.210938 456.398438 389.792969 456.398438 389.792969 C 456.65625 390.8125 457.433594 391.589844 458.46875 391.652344 C 459.503906 391.71875 460.539062 391.058594 460.800781 390.0625 L 464.296875 377.820312 C 464.296875 377.820312 468.179688 389.664062 468.179688 389.664062 C 468.566406 390.582031 469.34375 391.203125 470.378906 391.1875 C 471.285156 391.175781 472.191406 390.542969 472.449219 389.613281 L 474.519531 382.476562 C 474.519531 382.476562 475.683594 385.914062 475.683594 385.914062 C 475.945312 386.832031 476.851562 387.453125 477.753906 387.453125 L 513.738281 387.453125 C 515.035156 387.453125 515.941406 386.457031 515.941406 385.242188 C 515.941406 384.027344 515.035156 383.03125 513.738281 383.03125 L 479.441406 383.03125 C 479.441406 383.03125 476.589844 374.304688 476.589844 374.304688 C 476.332031 373.386719 475.425781 372.753906 474.519531 372.765625 C 473.484375 372.78125 472.707031 373.414062 472.449219 374.34375 L 470.25 381.542969 C 470.25 381.542969 466.367188 369.640625 466.367188 369.640625 C 466.105469 368.707031 465.203125 368.085938 464.164062 368.101562 C 463.261719 368.113281 462.355469 368.757812 462.09375 369.691406 L 459.246094 379.476562 C 459.246094 379.476562 456.140625 360.628906 456.140625 360.628906 C 456.011719 359.503906 454.976562 358.703125 453.808594 358.78125 C 452.644531 358.84375 451.738281 359.777344 451.738281 360.914062 L 451.222656 377.1875 C 451.222656 377.1875 446.820312 330.003906 446.820312 330.003906 C 446.691406 328.855469 445.785156 327.976562 444.621094 327.988281 C 443.453125 328.011719 442.417969 328.917969 442.417969 330.082031 L 439.703125 378.933594 C 439.703125 378.933594 434.136719 379.191406 434.136719 379.191406 C 434.136719 379.191406 431.417969 342.167969 431.417969 342.167969 C 431.289062 341.003906 430.382812 340.101562 429.21875 340.113281 C 428.054688 340.140625 427.019531 341.070312 427.019531 342.246094 L 424.167969 413.914062 C 422.488281 386.367188 420.675781 356.195312 420.675781 356.195312 C 420.675781 355.058594 419.640625 354.152344 418.605469 354.113281 C 417.4375 354.074219 416.402344 354.890625 416.273438 356.027344 L 412.390625 384.183594 C 412.390625 384.183594 409.933594 372.652344 409.933594 372.652344 C 409.671875 371.746094 409.027344 371.0625 408.117188 370.929688 C 407.210938 370.789062 406.308594 371.230469 405.789062 372.042969 L 399.316406 383.574219 C 399.316406 383.574219 388.316406 384.3125 388.316406 384.3125 C 388.316406 384.3125 385.078125 373.414062 385.078125 373.414062 C 384.820312 372.496094 384.042969 371.863281 383.007812 371.835938 C 382.101562 371.8125 381.195312 372.390625 380.9375 373.296875 L 377.441406 382.902344 C 377.441406 382.902344 372.136719 342.503906 372.136719 342.503906 C 372.007812 341.355469 370.96875 340.515625 369.804688 340.589844 C 368.640625 340.667969 367.734375 341.636719 367.734375 342.800781 L 367.734375 390.023438 C 367.734375 390.023438 361.003906 390.023438 361.003906 390.023438 C 361.003906 390.023438 356.214844 358.78125 356.214844 358.78125 C 356.085938 357.679688 355.050781 356.867188 354.015625 356.90625 C 352.847656 356.945312 351.945312 357.824219 351.8125 358.933594 L 351.039062 367.878906 C 351.039062 367.878906 346.378906 295.554688 346.378906 295.554688 C 346.378906 294.363281 345.34375 293.445312 344.179688 293.472656 C 343.011719 293.5 341.976562 294.453125 341.976562 295.644531 C 341.976562 295.644531 340.8125 360.746094 339.90625 404.414062 C 339.90625 404.414062 336.152344 364.972656 336.152344 364.972656 C 336.023438 363.886719 335.117188 363.03125 334.082031 362.96875 C 332.917969 362.917969 332.011719 363.679688 331.75 364.765625 L 327.867188 384.855469 C 327.867188 384.855469 324.890625 374.808594 324.890625 374.808594 C 324.632812 374.019531 323.984375 373.4375 323.210938 373.269531 C 322.433594 373.117188 321.527344 373.414062 321.007812 374.046875 L 313.242188 383.535156 C 313.242188 383.535156 302.5 383.910156 302.5 383.910156 C 302.5 383.910156 299.003906 378.042969 299.003906 378.042969 C 298.617188 377.394531 297.839844 376.992188 297.191406 376.96875 C 296.414062 376.941406 295.640625 377.292969 295.25 377.910156 L 291.367188 383.367188 C 291.367188 383.367188 289.816406 377.667969 289.816406 377.667969 C 289.683594 376.828125 288.910156 376.207031 288.132812 376.0625 C 287.226562 375.921875 286.320312 376.285156 285.929688 376.992188 L 278.941406 387.039062 C 278.941406 387.039062 273.894531 373.738281 273.894531 373.738281 C 273.636719 372.871094 272.730469 372.300781 271.824219 372.300781 C 270.917969 372.300781 270.140625 372.871094 269.753906 373.738281 L 265.996094 383.574219 C 265.996094 383.574219 262.761719 366.1875 262.761719 366.1875 C 262.632812 365.152344 261.726562 364.390625 260.691406 364.378906 C 259.65625 364.351562 258.75 365.0625 258.492188 366.082031 L 253.441406 387.671875 C 253.441406 387.671875 249.300781 351.410156 249.300781 351.410156 C 249.171875 350.261719 248.136719 349.421875 246.96875 349.445312 C 245.933594 349.472656 244.898438 350.378906 244.898438 351.527344 L 242.3125 393.617188 C 239.851562 354.539062 236.226562 297.414062 236.226562 297.414062 C 236.097656 296.238281 235.191406 295.320312 234.027344 295.347656 C 232.730469 295.359375 231.824219 296.304688 231.824219 297.480469 L 228.460938 393.074219 C 228.460938 393.074219 222.636719 355.988281 222.636719 355.988281 C 222.507812 354.890625 221.472656 354.085938 220.4375 354.113281 C 219.273438 354.125 218.367188 354.964844 218.234375 356.066406 L 215 384.324219 C 215 384.324219 213.316406 377.691406 213.316406 377.691406 C 213.058594 376.929688 212.539062 376.320312 211.761719 376.117188 C 210.988281 375.894531 210.082031 376.117188 209.5625 376.683594 L 205.550781 380.625 C 205.550781 380.625 202.054688 369.1875 202.054688 369.1875 C 201.667969 368.230469 200.761719 367.597656 199.855469 367.636719 C 198.820312 367.6875 197.914062 368.398438 197.785156 369.378906 L 194.03125 386.429688 C 194.03125 386.429688 188.078125 365.515625 188.078125 365.515625 C 187.6875 364.492188 186.78125 363.820312 185.746094 363.910156 C 184.710938 364.003906 183.804688 364.828125 183.675781 365.890625 L 181.21875 389.625 C 181.21875 389.625 176.425781 318.863281 176.425781 318.863281 C 176.296875 317.710938 175.390625 316.804688 174.226562 316.792969 C 173.0625 316.78125 172.15625 317.671875 172.027344 318.820312 L 166.589844 380.265625 C 166.589844 380.265625 163.613281 374.433594 163.613281 374.433594 C 163.222656 373.605469 162.320312 373.140625 161.414062 373.246094 C 160.378906 373.363281 159.730469 374.019531 159.472656 374.925781 L 157.398438 383.40625 C 157.398438 383.40625 151.574219 368.125 151.574219 368.125 C 151.1875 367.167969 150.152344 366.589844 149.246094 366.730469 C 148.210938 366.859375 147.433594 367.671875 147.304688 368.695312 L 144.328125 398.726562 C 144.328125 398.726562 140.054688 335.652344 140.054688 335.652344 C 139.925781 334.515625 139.019531 333.609375 137.855469 333.585938 C 136.691406 333.558594 135.785156 334.414062 135.65625 335.550781 L 130.609375 379.980469 C 130.609375 379.980469 126.851562 369.121094 126.851562 369.121094 C 126.464844 368.179688 125.558594 367.582031 124.523438 367.636719 C 123.617188 367.699219 122.710938 368.421875 122.582031 369.394531 L 119.734375 382.617188 C 119.734375 382.617188 115.074219 371.773438 115.074219 371.773438 C 114.816406 371.035156 114.039062 370.519531 113.261719 370.441406 C 112.488281 370.363281 111.710938 370.738281 111.191406 371.398438 L 105.882812 379.230469 C 105.882812 379.230469 98.636719 378.828125 98.636719 378.828125 C 97.472656 378.765625 96.4375 379.695312 96.308594 380.925781 C 96.308594 382.140625 97.210938 383.1875 98.507812 383.25 L 106.917969 383.714844 C 107.566406 383.769531 108.34375 383.40625 108.859375 382.757812 L 112.617188 377.214844 C 112.617188 377.214844 118.441406 390.789062 118.441406 390.789062 C 118.828125 391.667969 119.734375 392.210938 120.769531 392.105469 C 121.675781 392.015625 122.453125 391.304688 122.710938 390.359375 L 125.300781 378.105469 C 125.300781 378.105469 129.703125 390.632812 129.703125 390.632812 C 129.960938 391.613281 130.996094 392.222656 132.03125 392.105469 C 133.066406 391.988281 133.84375 391.175781 133.972656 390.152344 L 137.207031 360.539062 C 137.207031 360.539062 141.609375 425.496094 141.609375 425.496094 C 141.738281 426.648438 142.644531 427.550781 143.808594 427.566406 C 144.972656 427.589844 146.011719 426.726562 146.140625 425.574219 L 150.800781 378.453125 C 150.800781 378.453125 155.847656 391.628906 155.847656 391.628906 C 156.105469 392.53125 157.011719 393.113281 158.046875 393.050781 C 158.953125 392.984375 159.859375 392.300781 159.988281 391.355469 L 162.320312 381.710938 C 162.320312 381.710938 166.203125 389.054688 166.203125 389.054688 C 166.589844 389.933594 167.625 390.398438 168.53125 390.21875 C 169.566406 390.023438 170.34375 389.210938 170.34375 388.226562 C 170.34375 388.226562 173.96875 347.574219 173.96875 347.574219 C 175.910156 376.0625 178.5 415.710938 178.5 415.710938 C 178.628906 416.859375 179.535156 417.753906 180.699219 417.78125 C 181.863281 417.792969 182.898438 416.925781 183.03125 415.789062 C 183.03125 415.789062 186.914062 377.742188 186.914062 377.742188 C 186.914062 377.742188 192.21875 396.113281 192.21875 396.113281 C 192.476562 397.082031 193.382812 397.742188 194.417969 397.714844 C 195.453125 397.691406 196.230469 396.964844 196.488281 395.972656 L 200.246094 378.492188 C 200.246094 378.492188 202.445312 385.4375 202.445312 385.4375 C 202.703125 386.171875 203.351562 386.742188 203.996094 386.921875 C 204.773438 387.117188 205.550781 386.882812 206.199219 386.339844 L 209.953125 382.554688 C 209.953125 382.554688 213.703125 396.992188 213.703125 396.992188 C 213.964844 398.015625 214.871094 398.710938 215.90625 398.648438 C 217.070312 398.570312 217.847656 397.753906 217.976562 396.695312 L 220.824219 372.792969 C 220.824219 372.792969 227.554688 416.835938 227.554688 416.835938 C 227.8125 417.960938 228.847656 418.773438 229.882812 418.699219 C 231.050781 418.632812 231.957031 417.714844 231.957031 416.5625 L 234.675781 342.386719 C 237.132812 380.679688 240.238281 429.699219 240.238281 429.699219 C 240.238281 430.859375 241.277344 431.765625 242.441406 431.765625 C 243.605469 431.765625 244.511719 430.847656 244.640625 429.683594 L 247.746094 377.1875 C 247.746094 377.1875 250.464844 400.882812 250.464844 400.882812 C 250.59375 401.957031 251.5 402.785156 252.535156 402.847656 C 253.703125 402.898438 254.609375 402.1875 254.867188 401.140625 L 260.433594 377.40625 C 260.433594 377.40625 263.148438 392.171875 263.148438 392.171875 C 263.28125 393.152344 264.054688 393.890625 265.089844 393.980469 C 266.125 394.070312 267.03125 393.488281 267.421875 392.558594 L 271.824219 380.769531 C 271.824219 380.769531 276.351562 392.558594 276.351562 392.558594 C 276.613281 393.320312 277.257812 393.878906 278.164062 393.96875 C 278.941406 394.070312 279.71875 393.710938 280.234375 393.023438 L 286.835938 383.417969 C 286.835938 383.417969 288.390625 389.09375 288.390625 389.09375 C 288.648438 389.921875 289.296875 390.542969 290.074219 390.683594 C 290.980469 390.839844 291.886719 390.476562 292.273438 389.777344 L 296.933594 383.238281 C 296.933594 383.238281 299.390625 387.308594 299.390625 387.308594 C 299.78125 388.007812 300.558594 388.421875 301.332031 388.382812 L 314.40625 387.917969 C 315.054688 387.90625 315.703125 387.605469 316.089844 387.101562 L 321.785156 380.070312 C 321.785156 380.070312 326.1875 394.742188 326.1875 394.742188 C 326.574219 395.710938 327.480469 396.359375 328.515625 396.320312 C 329.421875 396.269531 330.328125 395.53125 330.457031 394.523438 L 333.175781 380.664062 C 333.175781 380.664062 339.257812 443.285156 339.257812 443.285156 C 339.390625 444.460938 340.296875 445.339844 341.460938 445.289062 C 342.625 445.25 343.660156 444.292969 343.660156 443.117188 C 343.660156 443.117188 344.566406 391.332031 345.472656 349.148438 C 345.472656 349.148438 348.578125 397.976562 348.578125 397.976562 C 348.578125 399.136719 349.613281 400.03125 350.777344 400.042969 C 351.945312 400.054688 352.847656 399.175781 352.980469 398.027344 L 354.660156 377.769531 C 354.660156 377.769531 356.992188 392.570312 356.992188 392.570312 C 357.121094 393.65625 358.027344 394.460938 359.191406 394.460938 L 369.933594 394.460938 C 371.101562 394.460938 372.136719 393.464844 372.136719 392.234375 L 372.136719 376.464844 C 372.136719 376.464844 374.207031 392.53125 374.207031 392.53125 C 374.335938 393.542969 375.242188 394.328125 376.148438 394.433594 C 377.183594 394.550781 378.21875 393.941406 378.480469 392.984375 C 378.480469 392.984375 382.75 381.15625 382.75 381.15625 C 382.75 381.15625 384.5625 387.269531 384.5625 387.269531 C 384.949219 388.265625 385.855469 388.925781 386.890625 388.847656 L 400.871094 387.917969 C 401.648438 387.867188 402.292969 387.4375 402.683594 386.78125 L 406.824219 379.335938 C 406.824219 379.335938 410.707031 397.367188 410.707031 397.367188 C 410.96875 398.414062 411.875 399.152344 412.910156 399.113281 C 414.074219 399.074219 414.980469 398.273438 415.109375 397.199219 C 415.109375 397.199219 417.566406 378.894531 417.566406 378.894531 C 417.566406 378.894531 422.355469 458.601562 422.355469 458.601562 C 422.355469 459.777344 423.390625 460.695312 424.558594 460.683594 C 425.722656 460.671875 426.757812 459.742188 426.757812 458.5625 Z M 429.863281 381.933594 " fill-opacity="1" fill-rule="evenodd"/></g></svg>